<?xml version="1.0" encoding="utf-8"?>
<!-- Generator: Adobe Illustrator 16.0.0, SVG Export Plug-In . SVG Version: 6.00 Build 0)  -->
<!DOCTYPE svg PUBLIC "-//W3C//DTD SVG 1.1//EN" "http://www.w3.org/Graphics/SVG/1.1/DTD/svg11.dtd">
<svg version="1.1" id="Шар_1" xmlns="http://www.w3.org/2000/svg" xmlns:xlink="http://www.w3.org/1999/xlink" x="0px" y="0px"
	 width="283.46px" height="283.46px" viewBox="0 0 283.46 283.46" enable-background="new 0 0 283.46 283.46" xml:space="preserve">
    <script type="text/ecmascript" xlink:href="../../js/smil.user.js"/>
<g>
    <g>
        <path fill="#1E1A16" d="M177.929,101.93c-31.774,0-57.543,25.697-57.543,57.423c0,31.722,25.769,57.447,57.543,57.447
            c31.773,0,57.542-25.726,57.542-57.447C235.471,127.627,209.703,101.93,177.929,101.93L177.929,101.93z M177.929,99.075
            c33.347,0,60.402,26.982,60.402,60.278c0,33.32-27.056,60.302-60.402,60.302c-33.348,0-60.403-26.981-60.403-60.302
            C117.526,126.057,144.582,99.075,177.929,99.075L177.929,99.075z"/>
        <path fill="#1E1A16" d="M182.876,59.788h-9.523l-4.948,17.702l-2.745,0.4c-2.431,0.371-4.862,0.856-7.235,1.428l-2.688,0.656
            l-11.383-14.504l-8.809,3.655l2.202,18.245l-2.374,1.428c-2.116,1.256-4.175,2.627-6.149,4.083l-2.23,1.599l-16.073-9.022
            l-6.75,6.738l9.009,15.932l-1.688,2.227c-1.487,1.999-2.889,4.055-4.204,6.196l-1.43,2.313l-18.161-2.17l-3.661,8.766
            l14.243,11.164l-0.687,2.712c-0.629,2.484-1.144,4.97-1.544,7.512l-0.429,2.714l-17.417,4.854v9.508l17.217,4.797l0.4,2.798
            c0.372,2.599,0.858,5.168,1.459,7.709l0.629,2.685l-14.014,10.992l3.632,8.766l17.503-2.113l1.43,2.427
            c1.373,2.313,2.86,4.568,4.461,6.768l1.602,2.227l-8.608,15.275l6.721,6.738l15.158-8.537l2.259,1.713
            c2.202,1.656,4.49,3.227,6.864,4.654l2.345,1.428l-2.088,17.217l8.809,3.626l10.611-13.505l2.717,0.714
            c2.717,0.686,5.49,1.256,8.293,1.685l2.746,0.399l4.633,16.532h9.523l4.604-16.446l2.774-0.371
            c2.803-0.399,5.605-0.942,8.352-1.628l2.717-0.685l10.553,13.447l8.809-3.626l-2.059-16.96l2.402-1.428
            c2.431-1.427,4.805-3.026,7.063-4.711l2.231-1.656l14.986,8.424l6.721-6.739l-8.438-14.961l1.688-2.227
            c1.659-2.256,3.203-4.598,4.662-6.996l1.43-2.397l17.16,2.084l3.66-8.794l-13.67-10.679l0.657-2.684
            c0.658-2.685,1.201-5.368,1.573-8.109l0.4-2.741l16.874-4.711v-9.508l-16.96-4.74l-0.429-2.742c-0.4-2.628-0.944-5.256-1.602-7.854
            l-0.687-2.712l13.985-10.936l-3.661-8.794l-17.731,2.141l-1.43-2.341c-1.373-2.227-2.803-4.368-4.376-6.453l-1.659-2.227
            l8.838-15.704l-6.722-6.71l-15.786,8.88l-2.231-1.656c-2.059-1.484-4.175-2.884-6.349-4.197l-2.374-1.428l2.174-18.074l-8.78-3.626
            L200.58,80.002l-2.688-0.657c-2.402-0.6-4.861-1.085-7.293-1.456l-2.745-0.4L182.876,59.788z M191.228,73.664
            c2.603,0.399,5.176,0.885,7.693,1.513l11.582-14.733l14.814,6.11l-2.23,18.559c2.288,1.371,4.49,2.855,6.636,4.397l16.216-9.108
            l11.354,11.335l-9.095,16.075c1.631,2.199,3.175,4.454,4.604,6.795l18.218-2.198l6.149,14.79l-14.328,11.221
            c0.686,2.712,1.258,5.455,1.658,8.253l17.446,4.885v15.989l-17.303,4.854c-0.43,2.884-0.973,5.711-1.659,8.48l14.042,11.021
            l-6.148,14.761l-17.617-2.112c-1.516,2.541-3.175,4.996-4.919,7.338l8.665,15.39l-11.325,11.307l-15.387-8.651
            c-2.402,1.799-4.861,3.454-7.436,4.968l2.088,17.417l-14.814,6.11l-10.868-13.819c-2.86,0.714-5.806,1.284-8.78,1.713
            l-4.747,16.874h-16.016l-4.776-16.988c-2.946-0.429-5.863-1.028-8.724-1.771l-10.867,13.848l-14.815-6.109l2.145-17.703
            c-2.517-1.513-4.919-3.141-7.236-4.91l-15.53,8.736l-11.354-11.307l8.866-15.731c-1.659-2.284-3.232-4.654-4.662-7.11l-17.96,2.17
            l-6.12-14.789l14.414-11.307c-0.629-2.656-1.144-5.368-1.544-8.138l-17.646-4.911v-16.018l17.903-4.999
            c0.429-2.656,0.973-5.313,1.63-7.882l-14.614-11.45l6.149-14.79l18.647,2.256c1.373-2.227,2.86-4.397,4.433-6.51l-9.209-16.332
            l11.325-11.307l16.502,9.251c2.088-1.513,4.262-2.941,6.492-4.283l-2.288-18.702l14.815-6.139l11.697,14.875
            c2.516-0.6,5.062-1.085,7.636-1.484l5.062-18.159h16.045L191.228,73.664z"/>
        <animateTransform time="10.5" xmlns="http://www.w3.org/2000/svg" attributeName="transform" attributeType="XML" type="rotate" dur="3s" begin="indefinite"  repeatCount="1" from="0 177.9285 159.365" to="360 177.9285 159.365"/>
	</g>
	<g>
        <path fill-rule="evenodd" clip-rule="evenodd" fill="#E46633" d="M56.695,54.734c-11.011,0-19.905,8.908-19.905,19.901
            c0,10.992,8.895,19.9,19.905,19.9s19.934-8.908,19.934-19.9C76.629,63.642,67.706,54.734,56.695,54.734L56.695,54.734z
             M56.695,51.878c12.584,0,22.794,10.193,22.794,22.756c0,12.563-10.21,22.756-22.794,22.756S33.93,87.197,33.93,74.635
            C33.93,62.072,44.111,51.878,56.695,51.878L56.695,51.878z"/>
        <path fill-rule="evenodd" clip-rule="evenodd" fill="#E46633" d="M53.949,24.611l-6.521,0.571l-2.86,15.247l-2.117,0.914
            c-1.373,0.571-2.717,1.256-4.004,1.999c-1.258,0.743-2.459,1.542-3.604,2.398l-2.03,1.542L19.315,41.2l-4.204,5.025l8.78,12.792
            l-0.858,2.142c-0.572,1.37-1.03,2.798-1.401,4.254c-0.372,1.399-0.658,2.798-0.858,4.226l-0.343,2.541L6.588,77.375l0.572,6.539
            l15.272,2.855l0.915,2.113c0.572,1.371,1.258,2.713,2.002,3.998c0.744,1.228,1.544,2.427,2.402,3.569l1.544,2.027l-6.092,13.477
            l5.034,4.226l12.813-8.765l2.145,0.856c1.373,0.542,2.803,1.028,4.261,1.399c1.401,0.371,2.803,0.628,4.233,0.828l2.545,0.343
            l5.205,13.848l6.549-0.571l2.86-15.275l2.116-0.885c1.373-0.6,2.717-1.256,4.004-2.027c1.23-0.714,2.431-1.513,3.575-2.398
            l2.031-1.542l13.499,6.11l4.232-5.025l-8.78-12.82l0.858-2.113c0.543-1.399,1.029-2.827,1.401-4.254
            c0.372-1.399,0.658-2.827,0.829-4.254l0.372-2.513l13.842-5.225l-0.572-6.51l-15.301-2.855l-0.887-2.113
            c-0.601-1.371-1.258-2.712-2.03-3.997c-0.715-1.256-1.516-2.456-2.402-3.598l-1.544-2.027l6.12-13.477L85.18,33.12l-12.841,8.766
            l-2.116-0.856c-1.401-0.571-2.832-1.028-4.262-1.399c-1.401-0.371-2.831-0.657-4.261-0.857l-2.517-0.342L53.949,24.611z
             M62.3,34.547c1.63,0.2,3.203,0.514,4.748,0.942c1.63,0.428,3.232,0.942,4.776,1.57l11.726-8.023l1.888-1.285l1.745,1.456
            l6.521,5.454l1.745,1.456l-0.944,2.084l-5.434,12.049c0.973,1.285,1.888,2.627,2.688,3.998c0.83,1.427,1.573,2.912,2.259,4.482
            l13.957,2.598l2.26,0.429l0.2,2.284l0.744,8.451l0.2,2.284l-2.145,0.799l-12.355,4.654c-0.229,1.627-0.543,3.198-0.944,4.739
            c-0.429,1.627-0.973,3.227-1.573,4.769l8.037,11.706l1.287,1.885l-1.458,1.742l-5.463,6.51l-1.487,1.742l-2.088-0.942
            l-12.041-5.425c-1.315,0.971-2.631,1.884-4.033,2.684c-1.43,0.828-2.917,1.57-4.461,2.255l-2.631,13.934l-0.429,2.255l-2.259,0.2
            l-8.465,0.742l-2.288,0.2l-0.801-2.141l-4.662-12.334c-1.63-0.229-3.203-0.542-4.748-0.942c-1.659-0.428-3.232-0.971-4.776-1.57
            l-11.726,8.023l-1.888,1.285l-1.773-1.457l-6.492-5.453l-1.773-1.485l0.944-2.084l5.462-12.02
            c-1.001-1.313-1.887-2.627-2.688-4.026c-0.83-1.428-1.602-2.913-2.26-4.455L5.416,87.94l-2.26-0.428l-0.2-2.256l-0.743-8.451
            l-0.2-2.284l2.145-0.8l12.383-4.654c0.2-1.627,0.515-3.198,0.944-4.74c0.429-1.656,0.944-3.226,1.573-4.768l-8.036-11.707
            l-1.287-1.884l1.458-1.77l5.462-6.481l1.459-1.771l2.087,0.942l12.069,5.454c1.287-1,2.631-1.885,4.004-2.684
            c1.43-0.856,2.917-1.599,4.49-2.255l2.603-13.962l0.429-2.255l2.288-0.2l8.465-0.743l2.288-0.2l0.801,2.142L62.3,34.547z">
        </path>
        <animateTransform time="10.5" xmlns="http://www.w3.org/2000/svg" attributeName="transform" attributeType="XML" type="rotate" dur="1.5s" begin="indefinite"  repeatCount="2" from="0 56.709500000000006 74.634" to="-360 56.709500000000006 74.634"/>
    </g>
</g>
</svg>
