<?xml version="1.0" encoding="utf-8"?>
<!-- Generator: Adobe Illustrator 16.0.0, SVG Export Plug-In . SVG Version: 6.00 Build 0)  -->
<!DOCTYPE svg PUBLIC "-//W3C//DTD SVG 1.1//EN" "http://www.w3.org/Graphics/SVG/1.1/DTD/svg11.dtd">
<svg version="1.1" id="Шар_1" xmlns="http://www.w3.org/2000/svg" xmlns:xlink="http://www.w3.org/1999/xlink" x="0px" y="0px"
	 width="283.46px" height="283.46px" viewBox="0 0 283.46 283.46" enable-background="new 0 0 283.46 283.46" xml:space="preserve">
    <script type="text/ecmascript" xlink:href="../../js/smil.user.js"/>
<clipPath id="myPath">
    <path fill-rule="evenodd" clip-rule="evenodd" fill="#FEFEFE" d="M82.241,35.067c-32.032,31.952-32.032,83.795,0,115.774
        c32.005,31.951,83.935,31.951,115.966,0c32.005-31.979,32.005-83.822,0-115.774C166.175,3.088,114.246,3.088,82.241,35.067
        L82.241,35.067z">
        <animateTransform xmlns="http://www.w3.org/2000/svg"
            time="0"
            attributeName="transform"
            type="translate"
            dur="0.75s"
            begin="indefinite"
            values="0 0;
                   -25 -5;
                   -50 0;
                   -55 15;
                   -50 30;
                   -25 35;
                    0 30;
                    5 15;
                    0 0"
            repeatCount="2"
            fill="freeze"
        />
        </path>
</clipPath>
<g>
    <path fill-rule="evenodd" clip-rule="evenodd" fill="#E46633" d="M42.365,64.591h77.791l0.105,35.424
        c0,2.532,2.065,4.595,4.602,4.595h35.378l0.025,0.026v111.519h-117.9V64.591z M41.214,58.848c-2.537,0-4.602,2.062-4.602,4.594
        v153.86c0,2.533,2.065,4.595,4.602,4.595h120.175c2.537,0,4.629-2.062,4.629-4.595V102.573l-42.307-43.725
        C96.413,58.848,68.853,58.848,41.214,58.848L41.214,58.848z M126.013,70.438l28.474,28.427h-28.474V70.438z"/>
</g>
<g>
    <path fill-rule="evenodd" clip-rule="evenodd" fill="#FEFEFE" d="M82.241,35.067c-32.032,31.952-32.032,83.795,0,115.774
        c32.005,31.951,83.935,31.951,115.966,0c32.005-31.979,32.005-83.822,0-115.774C166.175,3.088,114.246,3.088,82.241,35.067
        L82.241,35.067z"/>
    <path fill-rule="evenodd" clip-rule="evenodd" fill="#36322F" d="M210.287,174.856l52.949,52.862l10.434-10.416l-52.95-52.86
        L210.287,174.856z M82.241,35.067c-32.032,31.952-32.032,83.795,0,115.774c32.005,31.951,83.935,31.951,115.966,0
        c32.005-31.979,32.005-83.822,0-115.774C166.175,3.088,114.246,3.088,82.241,35.067L82.241,35.067z M77.613,30.446
        c34.567-34.511,90.627-34.511,125.195,0c33.967,33.91,34.567,88.521,1.778,123.161l8.865,8.851l4.627-4.595
        c1.464-1.462,3.844-1.462,5.309,0l56.872,56.777c1.464,1.462,1.464,3.838,0,5.3l-14.356,14.358c-1.463,1.461-3.869,1.461-5.308,0
        l-56.897-56.778c-1.465-1.462-1.465-3.864,0-5.3l4.602-4.621l-8.916-8.901c-34.751,31.221-88.328,30.151-121.771-3.262
        C43.045,120.925,43.045,64.956,77.613,30.446L77.613,30.446z"/>
    <animateTransform xmlns="http://www.w3.org/2000/svg"
            time="0"
            attributeName="transform"
            type="translate"
            dur="0.75s"
            begin="indefinite"
            values="0 0;
                   -25 -5;
                   -50 0;
                   -55 15;
                   -50 30;
                   -25 35;
                    0 30;
                    5 15;
                    0 0"
            fill="freeze"
            repeatCount="2"
    />
</g>
<g clip-path="url(#myPath)">
    <path fill-rule="evenodd" clip-rule="evenodd" fill="#E46633" d="M23.748,37.833h109.142l0.156,55.759
        c0,3.995,3.269,7.231,7.271,7.231h55.668l0.025,0.053v168.871H23.748V37.833z M21.97,28.801c-4.001,0-7.27,3.263-7.27,7.257v235.49
        c0,3.994,3.268,7.257,7.27,7.257h175.845c4,0,7.242-3.263,7.242-7.257V97.613l-66.546-68.812
        C95.55,28.801,65.454,28.801,21.97,28.801L21.97,28.801z M142.119,47.048l44.817,44.744h-44.817V47.048z"/>
</g>

</svg>
