<?xml version="1.0" encoding="utf-8"?>
<!-- Generator: Adobe Illustrator 16.0.0, SVG Export Plug-In . SVG Version: 6.00 Build 0)  -->
<!DOCTYPE svg PUBLIC "-//W3C//DTD SVG 1.1//EN" "http://www.w3.org/Graphics/SVG/1.1/DTD/svg11.dtd">
<svg version="1.1" id="Шар_1" xmlns="http://www.w3.org/2000/svg" xmlns:xlink="http://www.w3.org/1999/xlink" x="0px" y="0px"
	 width="447.748px" height="86.068px" viewBox="0 0 447.748 86.068" enable-background="new 0 0 447.748 86.068"
	 xml:space="preserve">
<g>
	<path fill-rule="evenodd" clip-rule="evenodd" fill="#fff" d="M30.785,39.231h20.39c-2.64,9.378-11.25,16.272-21.461,16.272
		c-12.277,0-22.292-10.009-22.292-22.305c0-12.294,10.015-22.311,22.292-22.311c9.299,0,17.277,5.722,20.624,13.82h6.052
		C52.786,13.411,42.197,5.211,29.713,5.211c-15.417,0-27.981,12.552-27.981,27.987c0,15.433,12.564,27.99,27.981,27.99
		c8.819,0,17.022-4.421,21.815-10.824v9.615h5.182V33.635H30.785V39.231z"/>
	<rect x="66.172" y="6.949" fill-rule="evenodd" clip-rule="evenodd" fill="#fff" width="5.579" height="53.029"/>
	<rect x="231.1" y="6.947" fill-rule="evenodd" clip-rule="evenodd" fill="#fff" width="5.584" height="52.967"/>
	<path fill-rule="evenodd" clip-rule="evenodd" fill="#fff" d="M100.849,56.143c-8.58,0-15.546-7.373-15.546-15.933
		c0-8.578,6.966-15.891,15.546-15.891c8.564,0,15.546,7.313,15.546,15.889C116.395,48.77,109.413,56.143,100.849,56.143
		L100.849,56.143z M100.849,19.019c-11.691,0-21.194,9.499-21.194,21.191c0,11.685,9.503,21.183,21.194,21.183
		c11.681,0,21.197-9.51,21.197-21.185C122.045,28.517,112.529,19.019,100.849,19.019z"/>
	<path fill-rule="evenodd" clip-rule="evenodd" fill="#fff" d="M149.715,56.143c-8.589,0-15.554-7.373-15.554-15.935
		c0-8.578,6.965-15.889,15.554-15.889c8.568,0,15.535,7.311,15.535,15.887C165.25,48.77,158.283,56.143,149.715,56.143
		L149.715,56.143z M149.952,18.63c-6.275,0-11.894,2.759-15.798,7.125V6.947h-5.577v53.031h5.577v-5.324
		c3.904,4.359,9.523,7.115,15.798,7.115c11.774,0,21.331-9.65,21.331-21.563C171.282,28.29,161.726,18.63,149.952,18.63z"/>
	<path fill-rule="evenodd" clip-rule="evenodd" fill="#fff" d="M200.113,56.121c-8.567,0-15.544-7.369-15.544-15.944
		c0-8.578,6.977-15.886,15.544-15.886c8.578,0,15.541,7.308,15.541,15.886C215.654,48.746,208.691,56.121,200.113,56.121
		L200.113,56.121z M215.698,25.833c-3.952-4.416-9.668-7.204-16.062-7.204c-11.917,0-21.575,9.661-21.575,21.577
		c0,11.913,9.658,21.563,21.575,21.567c6.394,0,12.109-2.798,16.062-7.199v5.404h5.641V21.146h-5.641V25.833z"/>
	<rect x="383.604" y="1.552" fill-rule="evenodd" clip-rule="evenodd" fill="#fff" width="9.903" height="9.376"/>
	<polygon fill-rule="evenodd" clip-rule="evenodd" fill="#fff" points="256.593,6.947 247.528,6.947 247.528,51.414
		247.528,59.934 277.239,59.934 277.239,51.414 256.593,51.414 	"/>
	<rect x="383.604" y="18.241" fill-rule="evenodd" clip-rule="evenodd" fill="#fff" width="9.903" height="41.617"/>
	<path fill-rule="evenodd" clip-rule="evenodd" fill="#fff" d="M302.371,52.705c-6.619,0-12-5.764-12-12.864
		s5.381-12.856,12-12.856c6.621,0,12.001,5.756,12.001,12.856S308.992,52.705,302.371,52.705L302.371,52.705z M302.371,18.102
		c-12,0-21.747,9.737-21.747,21.747c0,12.006,9.747,21.732,21.747,21.732c12.001,0,21.729-9.726,21.729-21.732
		C324.1,27.838,314.372,18.102,302.371,18.102z"/>
	<path fill-rule="evenodd" clip-rule="evenodd" fill="#fff" d="M434.782,45.697c-1.982,4.223-6.041,7.115-10.736,7.115
		c-6.624,0-12.008-5.778-12.008-12.884c0-7.752,5.384-12.868,12.008-12.868c4.469,0,8.37,2.62,10.438,6.492h10.369
		c-2.716-8.902-11.008-15.385-20.807-15.385c-12.008,0-21.766,9.745-21.766,21.779c0,12,9.758,21.746,21.766,21.746
		c10.021,0,18.437-6.779,20.97-15.994H434.782z"/>
	<path fill-rule="evenodd" clip-rule="evenodd" fill="#fff" d="M350.706,74.316c-4.433,0-8.671-2.323-11.239-5.814l-8.794,4.281
		c4.15,6.509,11.083,10.838,20.033,10.83c11.594,0,21.083-9.168,22.02-20.273h-9.938C361.93,69.543,356.85,74.316,350.706,74.316z"
		/>
	<path fill-rule="evenodd" clip-rule="evenodd" fill="#fff" d="M351.168,52.908c-6.594,0-11.953-5.756-11.953-12.823
		c0-7.072,5.359-12.807,11.953-12.807c6.613,0,11.973,5.73,11.973,12.807C363.141,47.152,357.782,52.908,351.168,52.908
		L351.168,52.908z M363.878,22.576c-3.578-2.59-7.956-4.139-12.71-4.139c-11.953,0-21.655,9.688-21.655,21.658
		c0,11.958,9.702,21.646,21.655,21.646c11.944,0,21.604-9.643,21.655-21.556V18.278h-8.945V22.576z"/>
</g>
</svg>
