<?xml version="1.0" encoding="utf-8"?>
<!-- Generator: Adobe Illustrator 16.0.0, SVG Export Plug-In . SVG Version: 6.00 Build 0)  -->
<!DOCTYPE svg PUBLIC "-//W3C//DTD SVG 1.1//EN" "http://www.w3.org/Graphics/SVG/1.1/DTD/svg11.dtd">
<svg version="1.1" id="Шар_1" xmlns="http://www.w3.org/2000/svg" xmlns:xlink="http://www.w3.org/1999/xlink" x="0px" y="0px"
	 width="347.23px" height="283.46px" viewBox="0 0 347.23 283.46" enable-background="new 0 0 347.23 283.46" xml:space="preserve">
	 <script type="text/ecmascript" xlink:href="../../js/smil.user.js"/>
<g>
<path fill-rule="evenodd" clip-rule="evenodd" fill="#E46633" d="M160.257,15.166c15.415,17.759,24.738,40.886,24.738,66.241
	c0,55.848-45.358,101.131-101.299,101.131c-25.14,0-48.162-9.165-65.865-24.298v-7.737c17.131,16.303,40.325,26.296,65.865,26.296
	c52.766,0,95.551-42.714,95.551-95.392c0-25.726-10.21-49.081-26.798-66.241H160.257z">
            <animate
               xmlns="http://www.w3.org/2000/svg"
               animation="stop"
               attributeName="d"
               attributeType="XML"
               type="translate"
               from="M160.257,15.166c15.415,17.759,24.738,40.886,24.738,66.241
	c0,55.848-45.358,101.131-101.299,101.131c-25.14,0-48.162-9.165-65.865-24.298v-7.737c17.131,16.303,40.325,26.296,65.865,26.296
	c52.766,0,95.551-42.714,95.551-95.392c0-25.726-10.21-49.081-26.798-66.241H160.257z"
               to="M160.257,15.166c11.677,25.079,15.236,41.14,15.236,66.495
	c0,55.848-35.269,108.454-93.51,108.13c-25.139-0.14-50.476-14.621-64.152-31.551v-7.737c13.353,15.931,38.613,33.435,64.152,33.549
	c53.064,0.238,87.762-49.713,87.762-102.391c0-25.726-3.959-43.357-17.296-66.495H160.257z"
               dur="0.25s"
               begin="moveAnimation.end + 0.15s"
               fill="freeze"
               />

            <animate
               xmlns="http://www.w3.org/2000/svg"
               animation="stop"
               attributeName="d"
               attributeType="XML"
               type="translate"
               to="M160.257,15.166c15.415,17.759,24.738,40.886,24.738,66.241
	c0,55.848-45.358,101.131-101.299,101.131c-25.14,0-48.162-9.165-65.865-24.298v-7.737c17.131,16.303,40.325,26.296,65.865,26.296
	c52.766,0,95.551-42.714,95.551-95.392c0-25.726-10.21-49.081-26.798-66.241H160.257z"
               from="M160.257,15.166c11.677,25.079,15.236,41.14,15.236,66.495
	c0,55.848-35.269,108.454-93.51,108.13c-25.139-0.14-50.476-14.621-64.152-31.551v-7.737c13.353,15.931,38.613,33.435,64.152,33.549
	c53.064,0.238,87.762-49.713,87.762-102.391c0-25.726-3.959-43.357-17.296-66.495H160.257z"
               dur="0.25s"
               begin="turn.end + 0.15s"
               fill="freeze"
               />
    </path>
        
</g>
<g>    
<g>
    <g>
        <path fill-rule="evenodd" clip-rule="evenodd" fill="#36322F" d="M61.103,237.272c2.717-2.712,7.149-2.712,9.866,0
            c2.718,2.741,2.718,7.138,0,9.851c-2.717,2.741-7.149,2.741-9.866,0C58.386,244.41,58.386,240.013,61.103,237.272L61.103,237.272z"
            />
        <polygon fill-rule="evenodd" clip-rule="evenodd" fill="#36322F" points="63.105,242.012 225.064,79.836 227.438,82.377
            65.564,244.467 "/>
        <path fill-rule="evenodd" clip-rule="evenodd" fill="#36322F" d="M223.262,74.154c2.717-2.712,7.121-2.712,9.867,0
            c2.717,2.741,2.717,7.138,0,9.851c-2.746,2.741-7.15,2.741-9.867,0C220.517,81.292,220.517,76.895,223.262,74.154L223.262,74.154z"
            />
    </g>
    <g>
        <g>
            <polygon fill-rule="evenodd" clip-rule="evenodd" fill="#E46633" points="131.601,153.729 152.478,132.857 173.356,153.729
                152.478,174.572 "/>
            <polygon fill-rule="evenodd" clip-rule="evenodd" fill="#FEFEFE" points="141.582,153.729 152.478,142.85 163.375,153.729
                152.478,164.579 "/>
        </g>
        <g>
            <path fill-rule="evenodd" clip-rule="evenodd" fill="#36322F" d="M187.363,174.829l64.034,32.663
                c23.052,12.135,22.279,11.192,3.289,19.045c-12.354,5.139-24.224,17.702-28.714,28.866c-6.721,16.702-6.835,19.358-16.444,1.17
                l-38.066-70.638C154.302,154.128,158.391,160.067,187.363,174.829L187.363,174.829z"/>
            <path fill-rule="evenodd" clip-rule="evenodd" fill="#FFFFFF" d="M174.236,176.028c1.173,2.17,2.345,4.368,3.518,6.538
                l38.066,70.638c0.4,0.771,1.115,2.113,1.916,3.598c0.543-1.37,1.058-2.712,1.602-4.054c5.434-13.563,19.076-27.182,32.604-32.778
                c1.458-0.628,2.917-1.199,4.376-1.799c-2.718-1.484-5.491-2.912-8.209-4.368l-64.005-32.606
                C180.814,179.511,177.525,177.769,174.236,176.028L174.236,176.028z"/>

            <animateTransform
            time="7.5"
            xmlns="http://www.w3.org/2000/svg"
            attributeName="transform"
            attributeType="XML"
            type="translate"
            begin="indefinite"
            dur="0.5s"
            from="0 0"
            to="65.564 -85.564"
            fill="freeze"
            id="moveAnimation"
             />

            <animateTransform
            xmlns="http://www.w3.org/2000/svg"
            animation="stop"
            attributeName="transform"
            attributeType="XML"
            type="translate"
            begin="back.end + 0.15s"
            dur="0.5s"
            from="65.564 -85.564"
            to="0 0"
            fill="freeze"
             />
        </g>
    </g>

            <animateTransform
            xmlns="http://www.w3.org/2000/svg"
            animation="stop"
            attributeName="transform"
            attributeType="XML"
            type="rotate"
            dur="0.25s"
            begin="moveAnimation.end + 0.15s"
            from="0 145.2715 162.1515"
            to="-13 145.2715 162.1515"
            id="turn"
            fill="freeze"
            />

            <animateTransform
            xmlns="http://www.w3.org/2000/svg"
            animation="stop"
            attributeName="transform"
            attributeType="XML"
            type="rotate"
            dur="0.25s"
            begin="turn.end + 0.15s"
            from="-13 145.2715 162.1515"
            to="0 145.2715 162.1515"
            fill="freeze"
            />


</g>
    		<animateTransform
    		xmlns="http://www.w3.org/2000/svg"
            animation="stop"
            attributeName="transform"
            attributeType="XML"
            type="translate"
		  	dur="0.25s"
		   	begin="moveAnimation.end + 0.15s"
		    from="0 0"
		    to="1 1"
            fill="freeze"/>

            <animateTransform
            xmlns="http://www.w3.org/2000/svg"
            animation="stop"
            attributeName="transform"
            attributeType="XML"
            type="translate"
		  	dur="0.25s"
		   	begin="turn.end + 0.15s"
		    to="0 0"
		    from="1 1"
            fill="freeze"
            id="back"/>
</g>
</svg>
