<?xml version="1.0" encoding="utf-8"?>
<?xml-stylesheet href="../../css/main.css" type="text/css"?>

<!-- Generator: Adobe Illustrator 16.0.0, SVG Export Plug-In . SVG Version: 6.00 Build 0)  -->
<!DOCTYPE svg PUBLIC "-//W3C//DTD SVG 1.1//EN" "http://www.w3.org/Graphics/SVG/1.1/DTD/svg11.dtd">
<svg version="1.1" id="Шар_1" xmlns="http://www.w3.org/2000/svg" xmlns:xlink="http://www.w3.org/1999/xlink" x="0px" y="0px"
	 width="1231.898px" height="816px" viewBox="0 0 1231.898 816" enable-background="new 0 0 1231.898 816" xml:space="preserve">

	 <script type="text/ecmascript" xlink:href="../../js/smil.user.js"/>
<polygon fill="#354352" points="878.852,647.482 874.368,651.464 874.109,652.393 875.298,652.811 885.449,645.501 878.34,646.134
	"/>
<polygon fill="#354352" points="888.826,642.161 891.195,637.96 885.246,643.517 "/>
<path fill="#354352" d="M1206.226,357.003l1.943-8.204l12.177-11.504l1.686-9.976l-0.76-1.606l-7.613-14.214l6.429-9.553
	l-1.013-1.098l-7.945-1.776l-11.339,6.849l-13.786-7.442l-4.308-11.499l-7.695-2.616l-7.782,2.366l-4.484-1.861l-7.016-13.36
	l-2.623,0.926l-4.567,5.665l-7.441,0.768l-17.254-11.848l-1.098-4.895l-0.168,0.25l-20.548-1.857l-3.723-8.38l-8.548,0.083
	l-0.504,12.519l-3.215,2.198l-2.625-1.185l-5.321,3.126l-0.344-2.195l-27.229-29.346l0.596-9.134l-8.036-5.154l-3.045-8.967
	l-1.354-0.761l-49.304,18.014l-4.4,5.751l-5.497-1.524l0.085-4.562l-10.149-4.489l-6.594,3.386l-1.525-0.754l-6.682-10.746
	l-1.943-0.927l-0.51-1.946l-19.871-1.183L927.378,219v3.667L922.044,225l-3.284-2.119l-5.403-3.722l-1.946-7.699l-6.343-2.698
	l-4.735-16.744l6.252-3.638l-1.603-2.026l-1.014-8.882l-3.386-2.624l-3.383-14.121l-3.043-1.523l-0.426-5.078l3.719-0.756
	l1.524-2.797l-0.586-1.175l-11.673-0.343l-6.26-17.926l-1.268-0.511l-4.063,1.098l-2.533-1.44l-19.199,5.162l-1.182-0.42l-3.3-6.686
	l-15.899-2.449l-6.092,3.219l-6.429-2.455l8.289-9.218l-0.586-3.638l-1.36,0.764l-2.28-0.252l-4.145-3.386l-0.254-0.931l0.344-0.594
	l1.517-0.336l-4.734-22.835l-3.301-1.267l-0.764-1.104l0.678-2.533l19.285-4.483l2.538-3.041l-1.943-8.798l-7.358-6.938
	l-2.027,0.595l-0.764-0.336L823.2,56.03l-5.665-5.666h-3.387l-2.874-16.658l1.188-2.448L794.362,6.479l-13.701,2.705l-4.654,4.65
	l-1.431,0.168l-1.189-1.774l0.424-4.148l-1.264-1.859l-2.882,2.118l-17.081-3.127l-7.44,7.017l-1.439-0.596l-9.306,7.441
	l-4.306-2.364l-7.954,1.016l-13.273-7.017l-3.219,1.008l-5.831-2.196l-2.709,0.595l-0.931,3.72l1.861,4.399L697.61,19.5
	l-2.279,1.862l-3.384,12.77l-24.692,8.036l-1.271-0.77l-0.587-5.497l-1.524-1.518l-37.295,0.26l-3.556,5.748l-1.521,0.671
	l-8.967-4.477l-10.904,1.093l-1.016,1.188l0.421,1.859l-0.931,2.112l1.946,0.252l0.76,1.524l-0.595,1.441l-1.775,0.084l-0.422-0.596
	l-0.424-0.168l-1.52,1.268l-0.165,1.523l-4.995,3.806l0.511,2.195l-2.112,2.203h-2.539l-5.162,8.54l0.595,3.132l-3.553,3.21
	l1.859,0.764l-1.523,5.329l-3.723,0.672l0.428,1.44l-0.764,2.28l0.428,1.525l-1.356,1.522l0.42,1.435l-2.792,2.119v0.755
	l1.861,1.441v0.671l-1.351,0.854v0.672l0.764,1.019l3.293,1.26l-1.435,2.203l1.519,1.266l0.259,0.854l-0.427,0.839l0.846,2.113
	l1.274,0.769v0.756l-1.693,0.084l-0.51,0.762l0.083,2.622l2.029,0.847l1.95,5.497l-0.845,0.336l0.418,3.042l-5.833,10.659
	l-0.762,0.168l-3.042-2.707l-1.945-0.252l-2.538-3.21l-3.972-0.595l-3.471-4.567l0.168-0.083l0.42-5.665l-10.233-8.965
	l-17.758,2.363l-1.776-0.84l-2.624,3.386l-7.273-0.686l-3.721-5.582l-11.668,5.498l-2.621,5.664l-4.314-1.181l-5.498,3.301
	l-1.519-0.847l-10.063-26.045l-4.316-1.693l-2.707,0.588l-4.225,6.177l-9.98,2.285l-3.972,3.973l-1.693,10.399l-1.189,1.352
	l-1.686-4.477l-0.846-0.084l-1.86,1.016l-1.106-0.513l-2.874-12.261l-11.414-1.349l-6.008,4.477l-0.84-0.336l-2.454-5.833
	l-2.792-2.028l-1.944-5.329l-1.357-0.083l-9.386,10.147l-7.862-0.343l-6.77-5.833l-1.517,0.252l-6.855,15.987l-1.099,0.168
	l-3.385-3.134l2.708-8.112l-0.847-2.287l-14.541-3.721l-4.567,3.469l-9.471,0.427l-0.929-0.853l1.601-6.085l-4.903-0.504
	l-0.931-0.937l-0.761-8.967l-50.233-6.931l-0.846-1.182v-2.79l-18.438-2.036l-4.315-3.889l-115.097,2.882l-26.046,31.374
	l-2.708,0.419l-3.805-4.056l-18.101-0.594l-1.608,3.043l2.119,8.714l-0.595,0.335l-0.594-0.503l0.51,2.195l3.889,1.777l-1.013,2.195
	l3.301,6.001l-0.763,0.343l-0.51,0.762l0.342,2.532l-1.273,0.51l-2.448,4.315l0.42,2.28l2.28,0.594l13.702,17.505l-1.097,0.589
	l-0.252,1.021l3.888,12.259l2.958,2.457l1.61,4.811l10.994,8.714l-0.847,1.86l-5.58,1.014l-1.777-1.014l-3.385,1.441l-0.763,3.888
	l1.022,1.357l3.462,1.008l-0.847,2.539l0.931,1.607l3.636,1.519l1.777,8.797l-1.518,2.708l1.098,6.426l0.336,0.336l-6.512,5.077
	l-2.027,9.219l-19.2,3.043l-60.381,72.561l-1.441,0.336l-9.219,15.729l2.706,37.969l0.421,0.504l1.273-1.352l1.014,0.765
	l-0.336,0.083l9.303,7.777l-0.427,5.162l1.357,2.362l-0.762,1.611l-6.764-5.239l-7.617,0.25l-5.581-4.314l-1.435,1.355l-1.355,8.116
	l-4.82,2.283L9.377,422.623l1.776,0.261l2.875-1.609l4.652,1.526l-1.015,4.643h2.371l4.902,12.008l7.778-0.418l8.289,14.628
	l9.469-2.032l7.443,6.853l-0.252,5.413l-1.182,1.434l3.042,3.22l2.54-1.276l0.51-1.347l-0.678-2.113l0.587-1.189l1.014-0.085
	l4.4,2.373l1.097-0.168l6.687-10.657l1.349-0.682l21.656,12.771l1.349-0.083l2.281-2.706l17.933,1.013l4.567,3.804l0.42,1.525
	l10.315-2.706l9.477,4.987l0.085-0.083l5.414,1.605l12.176-5.665l14.968,4.4l17.675,19.87l12.176-3.21l12.185-15.563l61.396-9.384
	l8.882-22.072l21.137-4.733l1.105-3.303l2.195-1.434l0.763-2.206l5.155,4.486l1.357-0.082l0.763-0.682l-0.595-7.358l0.677-1.011
	l2.029,0.426l1.015-1.945l0.762-0.258l6.763,4.313l2.54-0.419l0.677-0.68l2.533,0.421l0.343-0.253l-0.511-3.804l0.763-0.251
	l11.498,3.887l9.05-7.691l4.148,2.447l6.68-6.169l3.553-0.168l1.775-1.188l1.434,0.167l0.168,2.624l32.65,15.56l-1.014,5.749
	l0.93,0.762l2.538-0.167l2.113-1.774l1.099-0.168l1.439,4.815l1.099,0.336l9.554-3.042l0.679,0.847l-0.343,3.972l-3.127,4.235
	l0.168,1.43l0.762,0.848l1.442-0.253l2.447-3.887l1.524-0.253l1.693,2.115l-0.084,1.516l-1.098,1.271l4.14,5.75l0.679-0.085
	l2.028-8.371l1.518-0.678l17.338,4.399l12.437,18.686l2.449-0.504l5.077-4.907l2.111,0.343l3.217,8.457l4.227,2.109l-3.974,8.118
	l3.806,2.283l0.251,1.103l-8.03,22.24l3.044,9.22l1.182,0.93l2.288-2.119l11.918,16.491l2.118,0.594l3.211-2.706l1.015-3.05
	l2.706-0.082l2.372,1.523l1.607,6.262l-0.763,1.684l-1.692,0.845v9.729l-0.93,1.184l-3.301,0.591l-0.168,0.254l2.79,5.497
	l2.112-2.959l1.272-0.083l1.693,1.608l-2.454,12.679l22.835,13.701l1.266-0.677l0.763,0.426l0.763,24.779l-2.707,0.336l0.252,2.194
	l3.888,2.454l0.427,1.186l0.252,0.173l1.693-0.677l1.777,2.707l-0.511,0.844l4.147,3.804l0.678-0.594h2.112l0.931,0.594
	l-3.386,4.653l-13.191,0.93l-2.539,2.194l-1.349,0.176l-1.356-1.523l-0.596-4.315l-5.834-7.098l-0.762,4.139l-3.21,0.509
	l-0.42,0.589l-0.175,3.975l-2.027,1.355l-2.197-0.68l-1.859-3.377l-5.078-2.035l-0.42-0.672l0.847-4.316l-0.343-0.595l-1.609-0.251
	l-5.666,6.679h-0.845l-2.791-5.151l-0.932-0.346l-1.601,7.275l-0.343,0.168l-0.504-0.168l-4.819,3.887l-1.188-0.93L485,609.01
	l-1.099-1.356l-17.332,10.231l0.42,17.004l5.162,5.236l0.336,2.118l-5.078,9.053l1.188,8.538l-14.632,4.567l-0.763,1.436
	l0.679,9.977l-4.566,2.457v3.377l-6.262,1.44l-1.096,1.775l0.51,1.779l-0.426,0.762l-3.128,1.35l-2.79,4.229l4.14,7.527
	l-2.195,1.181l-0.427,1.099l0.176,0.167l0.083,4.314l-1.441,0.68l-14.205-1.859l-4.819,5.666l0.923,1.097l1.694-0.168l3.216,2.874
	l-0.343,1.862l3.302,7.521l31.033,8.457l0.763-0.845l-2.363-1.267l-0.343-2.286l1.943-0.933v-2.791l1.777-0.419l7.616,4.4
	l1.518-0.593l0.932-3.389l24.102-11.832l22.157,9.302l0.436,7.117c0.54,0.391,0.971,0.888,1.288,1.452
	c1.052,0.581,1.761,1.535,2.123,2.623l1.399-0.877l0.763-15.896l-0.931-1.014l1.351,0.082l0.678-1.181l-1.608-4.567l-1.267,3.806
	l-0.337-1.608l-0.425-0.336l-1.014-0.09v0.341l-0.336,0.336l-0.428,0.084l-0.168-2.623l-1.098,0.259l-0.343,2.959l-0.755,0.083
	l-2.371-3.552v-0.847l1.014-0.335l3.686-5.073c-0.092-0.291-0.16-0.59-0.203-0.894l-0.44,0.387l-5.154-1.015l0.847-12.772
	l2.279-1.776l-0.93-3.972l1.86-3.636l-1.434-2.37l0.503-1.269l0.344-0.085l3.554,4.4l-0.68,8.116l1.525,0.844l1.944,7.189
	l3.72-2.028l-0.342-1.016l0.342-0.76l1.35,0.677l3.723-2.368l-4.232-2.962l-0.504-1.271l0.42-1.947l4.826-1.348l0.504-1.013
	l0.427-0.168l0.587,0.168v0.762l2.002,2.411c0.121-0.18,0.255-0.35,0.401-0.511l-0.375-7.565l0.595-0.258l0.252,0.594l-0.42,1.693
	l1.351,1.942l1.013-6.511l1.526-0.761l4.734,3.209l0.595-0.335l0.168-0.421l1.014,0.671l0.512-0.082l2.111-7.36l0.503,0.168
	l0.094,2.413c0.124-0.151,0.246-0.303,0.392-0.451c0.571-0.58,1.231-0.947,1.944-1.187c0.051-0.137,0.099-0.273,0.173-0.403
	c0.568-1.354,1.303-2.453,2.416-3.431c0.908-0.797,1.937-1.434,2.944-2.09c0.269-0.175,0.827-0.801,0.705-0.421
	c0.104-0.324,0.234-0.618,0.378-0.894c-0.149-2.307,1.079-4.715,3.691-5.255c2.899-3.315,5.588-5.309,7.179-9.788
	c0.693-1.951,2.945-4.786,2.978-6.763c0.031-1.894,0.212-3.621,0.875-5.398c1.435-3.851,4.708-5.24,8.188-5.104
	c0.341-0.378,0.724-0.72,1.166-0.979c0.917-0.537,1.991-0.749,3.042-0.641l1.053-1.382l-2.371-2.28l0.847-1.272l3.637,0.261
	l5.666-9.563l-0.847-1.098h-0.252l-1.859-5.666l3.301-4.399l3.462,0.677l5.757-3.383l1.349,0.428l13.617-4.484l7.779,2.197
	l0.512-0.765l3.635,1.358l11.248-11.581l-3.387-3.3l-1.013-4.486l1.013,0.427l3.553,5.071l6.596-7.862l0.848,1.268l-9.302,16.405
	l0.25,1.353l3.304,0.509l1.432,1.266l1.524-0.25l1.185-2.54l14.63,2.027l5.748-2.623l0.512-8.622l-2.791-4.057l0.847-4.735
	l4.568-3.048l1.518-7.607l-2.957,1.353l-1.185-0.34l-0.594-1.694l3.218-5.412l-7.359-0.93l2.455-8.372l-4.063-2.792l-0.595-6.931
	l-4.309-1.607l-1.439-2.197l1.354-2.619l0.673,0.336l-0.251,2.706l0.595,1.18l5.068,3.05l0.931,5.154l2.456,1.523l1.013,2.539
	l-2.109,6.512l1.013,1.098l6.086-0.083l0.427,0.677l-2.79,5.324l0.678,0.845l3.377,0.597l0.682,1.012l-4.736,12.77l5.749,16.746
	l6.342,2.112l1.862,4.566l1.606-2.028l3.464-1.013l1.104-1.357l0.757-0.254l5.839,4.398l13.955-5.839l1.608,0.343l5.235-3.043
	l-4.899,5.156l-3.133,0.342l-7.863,7.351l1.271,1.778l-1.865,1.948l-54.886-6.433l-3.812-3.214
	c-0.003,0.151-0.011,0.302-0.025,0.452l10.853,13.93v-3.979l2.709-2.874l19.028,5.076l3.64,5.324l-19.117,6.007l-0.848,1.351
	l0.345,1.523l1.946,1.693l5.411,0.594l0.505-0.426l-0.085-3.553l8.969,6.091l2.108-0.846l10.913,7.105l3.806-1.105l-0.169,0.93
	l-1.692,1.777l1.184,4.65l41.781,0.762l0.588,0.429l8.539-1.105l0.938-1.265l-0.596-2.792l6.768,3.209l3.468-1.603l3.97-6.852
	l-1.431,9.217l6.846-0.251l0.169,1.099l-1.861,2.453l1.106,0.167l0.336,0.514l1.35-1.952l1.775,0.341l4.399,4.989l6.26,0.594
	l-1.356-2.029l0.677-1.188l3.469-0.587v-0.765l-1.772-1.183l0.082-1.44l4.316-3.295l3.461,6.422l-1.352,2.117l1.016,5.071
	l-0.845,1.78l0.083,0.762l0.762,0.335l-2.028,3.215l0.848,0.595l3.464-1.356l6.257,2.791l-4.567,1.86l-1.013-0.421l-0.086,5.156
	l-2.194,0.167l-1.945-1.946l-1.358-0.082l-6.001,3.891l-2.621-1.267l-16.915,9.896l-4.063-3.217l-0.586,0.509l-0.092,0.929
	l1.524,1.269l-0.334,1.188l-23.517,14.204l0.085,3.296l-4.65-0.168l-17.591,12.351l-0.931,2.531l2.119,6.512l10.148,1.942
	l4.476-3.887l11.507,0.594l24.102,18.856l9.219-3.21l11.246,9.05l2.538,22.242l-2.62,0.927l-2.874,6.086l1.861,9.73l-2.032,3.209
	l0.085,1.438l3.72,1.268l-13.197,3.301l-0.251-0.25l0.595,2.192l9.22,6.933l4.056-0.586l3.637,5.916l21.904,4.91l12.013-5.675
	l3.125-4.815l3.218-0.682l2.447-3.293v-0.594l0.427-0.589l3.805,0.085l9.303-17.337h0.251l0.085,0.082l0.083,0.512l19.03-9.134
	l4.653,0.845l2.026-1.188l3.387,0.258l2.196-1.952l4.313,0.512l2.115,3.471l2.874,0.418l4.994-10.148l4.055-1.265l3.89-5.077
	l1.693,1.013l1.355-1.349l3.212,2.538l-0.335-4.149l0.762-1.095l4.14-0.679v-0.588l-2.363-1.274l0.418-3.55l9.388-5.408
	l15.142,5.239l3.805,6.26l11.164,0.168l3.72-4.821l2.114,0.933v-0.679l9.811,3.721l1.349-0.338l0.932-2.704l13.192-3.471
	l0.174-1.433l-2.707-3.469l2.279-14.883l2.709-0.681l0.418-0.839l-0.586-0.844l0.082-2.624l0.932-1.015l1.267-0.344l5.244,1.611
	l2.197-0.594l0.509-1.018l-1.69-5.497l-2.028-1.774l-3.302,1.859l-2.792-3.21l-10.064-1.354l-1.943,1.354h-0.848l0.594-1.69
	l-0.508-1.184l-1.1-0.344l-1.943,1.777l-9.052,0.426l-6.512,8.539l-2.446,0.512l-8.886-4.911l-0.503-1.181l0.672-4.146l-1.6-0.168
	l-1.106,0.68l-3.296,7.188l-0.928,0.25l-0.679,2.37l-17.758,5.919l-0.298-0.56c-1.659,0.204-3.33-0.501-4.261-2.568
	c-2.15-4.778-7.076-7.723-10.243-11.803c-4.107-5.291-5.416-12.198-8.805-17.921c-6.147-10.386-10.374-21.616-11.725-33.604
	l-9.582-18.022l1.778-2.967l2.874-1.35l0.764-2.876l0.763-0.424l0.676,1.69l10.823-3.211l9.393-13.781l-3.218-8.036l1.44-1.862
	l1.687,4.903l4.65,2.289l-1.182,8.454l1.607,1.434l1.35-0.086l2.373-2.279l-8.106,13.261l6.333-2.666l13.334-11.667l9.333-9.333
	l5.579-2.884c7.194-6.62,16.663-12.987,26.525-13.712l5.02-2.595l2.28,2.706l0.081,2.453l0.177-0.761l1.349-0.681l0.253,0.336v1.44
	h0.51l1.694-5.076l14.882-9.719h4.395l2.965-2.03l3.042,0.671l1.098-0.671l7.192,5.322l-0.328,1.233
	c0.2-0.021,0.406-0.034,0.62-0.034c0.298,0,0.578,0.028,0.849,0.068l2.913-6.255l-0.586-2.279l2.216-1.176
	c4.16-7.805,12.795-11.241,21.408-11.354l1.577-0.837l4.649,1.609l1.525,1.944l-0.036,0.344c0.161-0.021,0.322-0.045,0.484-0.065
	c0.306-0.039,0.625-0.021,0.946,0.043l14.077-18.162l35.265-1.694l3.895,2.448l-1.525,4.744l7.276-7.533l-1.441-5.665l1.691-5.239
	l5.163-3.979l0.168-2.027l-0.595-1.097l-6.084-0.339l-0.849-1.012l8.793-28.927l28-8.624l6.425-17.085l60.894,3.719l4.141-14.541
	l-2.373-5.412l1.357-1.438l4.141-0.589l0.177-0.175l-0.763-6.428l10.903-17.414l-1.015-1.691l-6.344,1.097l-4.651-2.959l7.274-6.936
	l-5.496-12.514l1.606-0.259l-2.11-7.358l-13.787-1.35l11.416-23.253l11.756,2.531l5.156-6.084l-0.169-1.944l-1.266-1.694
	l-1.693-0.252l-3.888,3.555l-2.791-2.623l-10.064-1.694l-5.666-7.7l0.512-5.151L1206.226,357.003z"/>
<polygon fill="#F15838" points="869.165,245.907 871.589,242.393 876.075,242.041 876.43,244.291 879.633,244.08 880.204,238.738
	883.908,235.223 888.964,236.701 890.676,232.974 895.94,231.849 894.232,229.318 894.587,226.858 898.717,228.756 898.933,225.03
	901.924,224.327 907.902,230.232 909.611,229.458 908.257,226.507 911.462,227.421 913.314,224.678 915.38,224.678 915.025,226.719
	918.585,225.594 919.508,221.866 923.427,221.516 926.273,215.047 930.762,213.363 932.966,210.267 949.486,212.096
	956.964,219.128 956.394,223.204 962.802,225.594 969.14,221.304 979.036,224.678 981.311,230.584 985.23,229.671 986.367,225.03
	1036.139,201.764 1039.201,202.467 1038.631,205.63 1036.568,205.63 1036.921,210.831 1044.042,216.174 1047.246,214.346
	1049.454,216.526 1048.742,225.381 1074.59,247.034 1076.796,246.471 1081.995,251.884 1079.43,254.061 1084.13,260.318
	1079.645,260.881 1078.862,263.483 1083.205,265.729 1079.217,269.597 1075.303,269.949 1076.441,272.901 1079.217,273.252
	1081.283,281.403 1078.862,282.32 1077.01,290.123 1073.24,289.912 1072.669,292.161 1075.658,292.513 1070.814,295.254
	1070.602,303.969 1072.311,304.322 1072.311,307.272 1074.59,309.173 1074.375,314.864 1079.786,316.554 1079.645,318.59
	1076.441,318.942 1077.01,321.192 1074.947,323.23 1073.808,327.8 1059.564,325.198 1059.21,326.323 1054.507,326.534
	1051.305,332.789 1058.637,336.164 1050.38,339.678 1050.949,344.672 1045.895,347.412 1045.542,352.4 1042.549,352.051
	1040.695,354.651 1038.417,354.44 1038.417,356.268 1043.259,359.642 1042.904,361.117 1038.063,360.344 1037.138,361.469
	1034.286,362.031 1032.082,371.802 1027.741,370.537 1027.741,367.373 1025.318,367.162 1024.176,372.364 1021.188,371.1
	1019.125,374.052 1022.896,378.13 1021.543,379.605 1016.703,374.052 1015.563,375.526 1013.924,374.052 1009.229,374.404
	1008.653,377.565 1006.021,377.706 1003.958,374.965 1002.461,376.092 1000.751,375.526 998.329,378.13 1003.032,386.985
	1001.322,388.25 1001.748,391.624 1002.816,391.624 1002.816,393.451 1004.311,395.843 1003.246,394.086 1000.608,394.365
	1000.042,392.888 997.405,393.451 997.405,396.757 994.061,397.179 986.367,390.852 979.604,401.185 980.388,403.785
	977.968,404.698 975.474,402.872 973.839,404.911 972.699,403.432 973.979,400.269 970.275,396.053 971.773,393.242
	962.943,386.426 963.727,384.385 961.448,382.135 962.233,379.605 960.167,377.706 955.466,377.145 955.823,374.757 953.4,374.191
	953.757,371.661 952.266,370.537 953.188,367.724 948.134,364.214 950.059,360.344 946.635,357.603 936.956,366.25 928.482,365.337
	927.34,362.944 924.563,364.214 923.07,362.385 914.24,362.731 910.539,359.642 906.621,359.079 903.417,355.215 901.141,355
	900.784,352.966 897.219,350.575 895.372,352.051 893.663,350.575 895.515,348.536 891.453,345.582 884.335,345.725
	882.416,347.131 882.627,347.621 880.56,342.21 879.064,341.717 877.57,337.778 880.347,329.135 896.295,331.313 896.507,332.648
	899.502,331.313 898.933,328.01 904.131,321.684 901.924,321.192 902.063,314.864 899.856,314.724 900.784,310.087 909.967,311.352
	911.249,307.839 907.117,306.925 904.911,303.407 910.68,302.493 906.191,292.722 897.219,292.722 894.801,288.996 892.167,287.873
	891.026,276.767 878.709,275.5 878.709,274.025 881.345,271.635 878.138,271.425 875.864,273.673 868.029,269.034 867.104,265.519
	865.609,265.308 869.667,247.034 868.671,246.541 "/>

	<circle r="10px" cx="983px" cy="265px" opacity="0" fill="white">
        <animate
             time="0"
             attributeName="opacity"
             from="0"
             to="1"
             dur="0.1s"
             begin="indefinite"
             repeatCount="1"
             fill="freeze"
             id="base"
             />
	</circle>
    <circle id="circle-mid" r="20" cx="983px" cy="265px" opacity="0" fill="white">
        <animate animation="stop"
             attributeName="opacity"
             from="0.8"
             to="0.2"
             dur="1s"
             begin="base.end"
             repeatCount="2"
             fill="freeze"
             id="circ"
             />
        <animate
             attributeName="r"
             from="0"
             to="25"
             dur="1s"
             begin="base.end"
             repeatCount="2"
             fill="freeze"
             />
    </circle>
    <circle id="circle-out" r="40" cx="983px" cy="265px" opacity="0" fill="white">
        <animate animation="stop"
             attributeName="opacity"
             from="0.7"
             to="0.2"
             dur="1s"
             begin="base.end"
             repeatCount="2"
             fill="freeze"
             />
        <animate animation="stop"
             attributeName="r" from="25" to="40" dur="1s"
             repeatCount="2"
             fill="freeze"
             begin="base.end"
             />
    </circle>
    <path id="line"
        stroke="#484C56"
        stroke-width="3"
        stroke-dasharray="6"
        transform='rotate(180)'
        >
        <animate animation="stop" attributeName="d" values="M-983 -225 v0;M-983 -225 v25; M-983 -225 v50; M-983 -225 v75; M-983 -225 v100"
               dur="0.5s"
               begin="circ.begin + 1s"
               repeatCount="1"
               fill="freeze"
               id="animate"
        />

    </path>

    <text x="1000" y="140" opacity="0" text-align="left"><tspan id="test"
             style="		font-family: proxima_nova_rgbold;
                            text-align: left;
                            text-transform: uppercase;
                            font-size  : 22px;
                            fill     	:#f15738;
                            display		:inline-block"
        >ux
</tspan><tspan
             style="		font-family: proxima_nova_rgbold;
                            text-align: left;
                            text-transform: uppercase;
                            font-size  : 22px;
                            fill     	:#fff;
                            display		:inline-block">group</tspan>
        <animate animation="stop" id="logo-text"
            attributeName="opacity"
            values="0; 1" dur="0.1s"
            repeatCount="1"
            fill="freeze"
            begin="animate.end"/>
    </text>

    <text x="1000" y="170" id="sub-text" opacity="0">
        <tspan
            x="1000"
            y="170"
             style="		font-family: proxima_nova_ththin;
                            text-align: left;
                            font-size  : 22px;
                            fill     	:#fff;
                            display		:inline-block"
        >Kharkiv,Ukraine
        </tspan>
        <animate animation="stop"
            attributeName="opacity"
            values="0; 1" dur="0.1s"
            repeatCount="1"
            fill="freeze"
            begin="animate.end"/>
    </text>

</svg>
