<?xml version="1.0" encoding="utf-8"?>
<!-- Generator: Adobe Illustrator 16.0.0, SVG Export Plug-In . SVG Version: 6.00 Build 0)  -->
<!DOCTYPE svg PUBLIC "-//W3C//DTD SVG 1.1//EN" "http://www.w3.org/Graphics/SVG/1.1/DTD/svg11.dtd">
<svg version="1.1" id="Layer_1" xmlns="http://www.w3.org/2000/svg" xmlns:xlink="http://www.w3.org/1999/xlink" x="0px" y="0px"
	 width="100%" height="100%" viewBox="0 0 340.158 340.158" enable-background="new 0 0 340.158 340.158"
	 xml:space="preserve">

	 <script type="text/ecmascript" xlink:href="../../js/smil.user.js"/>
	 <clipPath id="myClip">
        <path fill-rule="evenodd" clip-rule="evenodd" fill="#FFFFFF" d="M247.211,289.892c16.132-11.588,29.547-26.713,39.106-44.234
                c10.24-18.781,16.06-40.34,16.06-63.28c0-36.523-14.803-69.587-38.734-93.519c-23.933-23.933-56.995-38.735-93.513-38.735
                c-36.52,0-69.583,14.803-93.515,38.735c-23.932,23.932-38.735,56.995-38.735,93.519c0,23.11,5.916,44.831,16.312,63.724
                c9.447,17.158,22.598,31.998,38.377,43.439c0.436-12.035,9.37-19.43,19.859-23.969c6.392-2.768,16.117-6.863,23.731-9.984
                c3.375-1.383,6.408-2.582,8.693-3.422l-0.049-7.689c-0.694-1.123-1.626-2.893-2.713-5.605c-1.441-3.598-4.626-10.559-6.061-13.668
                c-1.882-0.904-4.364-2.789-5.603-6.654c-0.841-2.627-1.93-7.262-2.336-11.225c-0.358-3.492-0.142-6.756,1.18-8.736
                c0.808-1.211,0.433-2.082,1.356-2.713c-0.846-4.395-0.761-12.101-0.499-18.909c0.332-8.595,5.29-15.643,12.635-20.61
                c7.555-5.109,17.764-8.019,27.861-8.027c9.885-0.009,19.749,2.796,27.018,7.925c6.978,4.925,11.643,11.954,11.961,20.729
                c0.246,6.779,0.125,14.465-0.52,18.797c0.97,0.637,1.14,1.535,1.99,2.809c1.321,1.98,1.537,5.246,1.179,8.736
                c-0.406,3.965-1.495,8.598-2.337,11.225c-1.238,3.865-3.72,5.75-5.603,6.654c-1.435,3.109-4.62,10.07-6.062,13.668
                c-1.087,2.713-2.019,4.482-2.713,5.605l-0.049,7.689c2.286,0.84,5.32,2.039,8.696,3.424c7.614,3.119,17.338,7.215,23.729,9.982
                C239.907,270.763,246.33,277.337,247.211,289.892z"/>
    </clipPath>
	<path fill-rule="evenodd" clip-rule="evenodd" fill="#fff" d="M82.935,292.259c-14.534-11.553-26.726-25.936-35.743-42.314
			c-11.034-20.049-17.312-43.082-17.312-67.567c0-38.732,15.698-73.795,41.079-99.175c25.38-25.381,60.443-41.079,99.171-41.079
			c38.726,0,73.789,15.698,99.169,41.079c25.38,25.38,41.078,60.442,41.078,99.175c0,24.282-6.182,47.146-17.06,67.093
			c-7.405,13.574-16.985,25.787-28.27,36.172c-9.179,8.445-16.236,12.646-25.969,18.699c0.159-3.674,0.037-8.275,0.021-11.563
			c-0.057-10.961-4.601-15.24-14.409-19.486c-6.398-2.77-16.06-6.84-23.566-9.916c-5.679-2.326-9.666-4.055-9.763-4.055l-3.62-1.891
			l-0.488-2.332l0.076-11.977l1.337-3.092c0.001,0,0.36-0.275,1.979-4.316c2.127-5.309,6.936-15.635,6.949-15.664l3.174-2.367
			c0.002,0,0.789-0.088,1.315-1.732c0.717-2.238,1.642-6.16,1.982-9.48c0.178-1.732,0.28-3.037,0.206-3.148
			c-0.438-0.656-0.614-0.654-0.614-0.654l-3.035-1.883l-0.193-3.1c0.006-0.031,1.286-11.269,0.955-20.407
			c-0.212-5.846-3.496-10.651-8.417-14.125c-5.912-4.172-14.073-6.453-22.345-6.446c-8.517,0.008-17.062,2.417-23.318,6.647
			c-5.226,3.535-8.745,8.327-8.961,13.939c-0.347,9.019,1.022,20.13,1.03,20.163l-0.02,3.787l-2.67,1.424
			c0,0-0.177-0.002-0.615,0.654c-0.074,0.111,0.028,1.416,0.206,3.146c0.341,3.322,1.266,7.244,1.983,9.482
			c0.527,1.645,1.314,1.732,1.315,1.732l3.174,2.367c0.014,0.029,4.822,10.357,6.948,15.664c1.619,4.041,1.979,4.316,1.98,4.316
			l1.337,3.092l0.077,11.977l-0.282,2.648l-3.827,1.574c-0.096,0-4.083,1.729-9.76,4.055c-7.508,3.076-17.17,7.146-23.57,9.916
			c-7.625,3.301-14.836,8.166-14.882,17.07c-0.015,2.957-0.293,6.982-0.337,10.123c-0.018,1.227-0.035,2.451-0.05,3.658
			C93.88,300.087,89.23,297.263,82.935,292.259L82.935,292.259z M247.211,289.892c16.132-11.588,29.547-26.713,39.106-44.234
			c10.24-18.781,16.06-40.34,16.06-63.28c0-36.523-14.803-69.587-38.734-93.519c-23.933-23.933-56.995-38.735-93.513-38.735
			c-36.52,0-69.583,14.803-93.515,38.735c-23.932,23.932-38.735,56.995-38.735,93.519c0,23.11,5.916,44.831,16.312,63.724
			c9.447,17.158,22.598,31.998,38.377,43.439c0.436-12.035,9.37-19.43,19.859-23.969c6.392-2.768,16.117-6.863,23.731-9.984
			c3.375-1.383,6.408-2.582,8.693-3.422l-0.049-7.689c-0.694-1.123-1.626-2.893-2.713-5.605c-1.441-3.598-4.626-10.559-6.061-13.668
			c-1.882-0.904-4.364-2.789-5.603-6.654c-0.841-2.627-1.93-7.262-2.336-11.225c-0.358-3.492-0.142-6.756,1.18-8.736
			c0.808-1.211,0.433-2.082,1.356-2.713c-0.846-4.395-0.761-12.101-0.499-18.909c0.332-8.595,5.29-15.643,12.635-20.61
			c7.555-5.109,17.764-8.019,27.861-8.027c9.885-0.009,19.749,2.796,27.018,7.925c6.978,4.925,11.643,11.954,11.961,20.729
			c0.246,6.779,0.125,14.465-0.52,18.797c0.97,0.637,1.14,1.535,1.99,2.809c1.321,1.98,1.537,5.246,1.179,8.736
			c-0.406,3.965-1.495,8.598-2.337,11.225c-1.238,3.865-3.72,5.75-5.603,6.654c-1.435,3.109-4.62,10.07-6.062,13.668
			c-1.087,2.713-2.019,4.482-2.713,5.605l-0.049,7.689c2.286,0.84,5.32,2.039,8.696,3.424c7.614,3.119,17.338,7.215,23.729,9.982
			C239.907,270.763,246.33,277.337,247.211,289.892z"/>
<g clip-path="url(#myClip)">
	<path fill-rule="evenodd" clip-rule="evenodd" fill="#fff" transform="translate(0, -300)" d="M169.536,20.967c33.168,0,63.201,13.446,84.939,35.185
		c21.739,21.738,35.186,51.771,35.186,84.941c0,33.172-13.446,63.215-35.186,84.965c-21.738,21.748-51.771,35.195-84.939,35.195
		c-33.171,0-63.203-13.447-84.941-35.195c-21.739-21.75-35.185-51.793-35.185-84.965c0-33.171,13.446-63.203,35.185-84.941
		S136.365,20.967,169.536,20.967L169.536,20.967z M251.647,58.979c-21.015-21.015-50.047-34.013-82.112-34.013
		c-32.068,0-61.1,12.998-82.114,34.013C66.408,79.993,53.41,109.025,53.41,141.093c0,32.068,12.998,61.111,34.012,82.137
		c21.014,21.023,50.046,34.023,82.114,34.023c32.065,0,61.097-13,82.112-34.023c21.014-21.025,34.012-50.068,34.012-82.137
		C285.659,109.025,272.661,79.993,251.647,58.979z">
		<animateTransform id="anim" xmlns="http://www.w3.org/2000/svg" attributeName="transform" attributeType="XML" type="translate" begin="indefinite" dur="1s" repeatCount="1" from="0 -300" to="0 0" fill="freeze"/>
	</path>
	<path fill-rule="evenodd" clip-rule="evenodd" fill="#fff" transform="translate(300, 0)" d="M211.111,78.904c33.172,0,63.204,13.446,84.942,35.185
		c21.739,21.738,35.185,51.771,35.185,84.953c0,33.186-13.445,63.225-35.185,84.963c-21.738,21.74-51.771,35.186-84.942,35.186
		c-33.168,0-63.2-13.447-84.938-35.186c-21.739-21.738-35.185-51.777-35.185-84.963c0-33.183,13.446-63.215,35.185-84.953
		S177.943,78.904,211.111,78.904L211.111,78.904z M293.226,116.917c-21.014-21.015-50.046-34.013-82.114-34.013
		c-32.065,0-61.097,12.998-82.111,34.013c-21.014,21.014-34.012,50.046-34.012,82.125c0,32.082,12.998,61.121,34.012,82.135
		c21.014,21.016,50.046,34.014,82.111,34.014c32.068,0,61.101-12.998,82.114-34.014c21.015-21.014,34.013-50.053,34.013-82.135
		C327.238,166.963,314.24,137.931,293.226,116.917z">
		<animateTransform xmlns="http://www.w3.org/2000/svg" attributeName="transform" attributeType="XML" type="translate" begin="indefinite" dur="1s" repeatCount="1" from="300 0" to="0 0" fill="freeze"/>
	</path>
	<path fill-rule="evenodd" clip-rule="evenodd" fill="#fff" transform="translate(-300, 0)" d="M127.957,77.541c33.171,0,63.201,13.446,84.94,35.185
		c21.738,21.739,35.185,51.771,35.185,84.951c0,33.188-13.446,63.227-35.185,84.965c-21.739,21.74-51.769,35.186-84.94,35.186
		s-63.203-13.447-84.941-35.186S7.831,230.864,7.831,197.677c0-33.18,13.446-63.212,35.184-84.951
		C64.754,90.987,94.786,77.541,127.957,77.541L127.957,77.541z M210.068,115.554c-21.014-21.015-50.044-34.013-82.112-34.013
		c-32.067,0-61.1,12.998-82.114,34.013c-21.014,21.014-34.012,50.046-34.012,82.123c0,32.084,12.998,61.123,34.012,82.137
		c21.014,21.016,50.046,34.014,82.114,34.014c32.068,0,61.098-12.998,82.112-34.014c21.015-21.014,34.013-50.053,34.013-82.137
		C244.081,165.6,231.083,136.567,210.068,115.554z">
		<animateTransform xmlns="http://www.w3.org/2000/svg" attributeName="transform" attributeType="XML" type="translate" begin="indefinite" dur="1s" repeatCount="1" from="-300 0" to="0 0" fill="freeze"/>
	</path>
</g>
</svg>
