<?xml version="1.0" standalone="no"?><!DOCTYPE svg PUBLIC "-//W3C//DTD SVG 1.1//EN" "http://www.w3.org/Graphics/SVG/1.1/DTD/svg11.dtd" ><svg xmlns="http://www.w3.org/2000/svg"><metadata></metadata><defs><font id="MarkSimonson: Proxima Nova Extrabold: 2005" horiz-adv-x="2238"><font-face font-family="Proxima Nova Lt" font-weight="600" font-stretch="normal" units-per-em="2048" panose-1="2 0 5 6 3 0 0 2 0 4" ascent="1860" descent="-615" x-height="4" bbox="-207 -408 2140 1831" underline-thickness="40" underline-position="-452" unicode-range="U+0000-fb04" /><missing-glyph horiz-adv-x="748" d="M68 0 L68 1365 L612 1365 L612 0 L68 0 ZM136 68 L544 68 L544 1297 L136 1297 L136 68 Z" /><glyph glyph-name=".null" unicode="" d="" /><glyph glyph-name="nonmarkingreturn" unicode="" d="" /><glyph glyph-name="nonmarkingreturn" unicode="" d="" /><glyph glyph-name="space" unicode=" " d="" /><glyph glyph-name="exclam" unicode="!" d="M109 121 Q109 180 150.5 222 Q192 264 250 264 Q308 264 350.5 222 Q393 180 393 121 Q393 64 350.5 22 Q308 -20 250 -20 Q192 -20 150.5 22 Q109 64 109 121 ZM119 1366 L381 1366 L344 418 L158 418 L119 1366 Z" /><glyph glyph-name="quotedbl" unicode="&quot;" d="M98 1266 Q98 1316 133 1351 Q168 1386 219 1386 Q269 1386 304.5 1350.5 Q340 1315 340 1266 Q340 1250 322 1134 Q304 1018 286 910 L268 801 L170 801 Q98 1231 98 1266 ZM438 1266 Q438 1316 473 1351 Q508 1386 559 1386 Q608 1386 643 1351 Q678 1316 678 1266 Q678 1250 660 1134 Q642 1018 624 910 L606 801 L510 801 Q438 1231 438 1266 Z" /><glyph glyph-name="numbersign" unicode="#" d="M39 356 L84 498 L293 498 L414 866 L205 866 L248 1006 L463 1006 L582 1366 L745 1366 L627 1006 L834 1006 L952 1366 L1116 1366 L995 1006 L1202 1006 L1161 866 L948 866 L825 498 L1040 498 L997 356 L778 356 L659 0 L496 0 L616 356 L408 356 L289 0 L125 0 L244 356 L39 356 ZM457 498 L662 498 L784 866 L578 866 L457 498 Z" /><glyph glyph-name="dollar" unicode="$" d="M72 193 L205 377 Q345 226 549 195 L549 590 Q497 603 458 614.5 Q419 626 371 645 Q323 664 289 684.5 Q255 705 220 735 Q185 765 163.5 800.5 Q142 836 128.5 883.5 Q115 931 115 987 Q115 1145 234 1255 Q353 1365 549 1382 L549 1573 L713 1573 L713 1380 Q961 1353 1124 1196 L987 1018 Q873 1129 713 1161 L713 809 Q776 792 821 777 Q866 762 921.5 738 Q977 714 1015 684 Q1053 654 1087 613.5 Q1121 573 1138 518 Q1155 463 1155 397 Q1155 317 1128.5 247 Q1102 177 1049.5 120.5 Q997 64 911 27 Q825 -10 713 -20 L713 -205 L549 -205 L549 -20 Q244 3 72 193 ZM360 1004 Q360 948 409 913 Q458 878 549 852 L549 1171 Q462 1162 411 1117 Q360 1072 360 1004 ZM713 193 Q812 209 861.5 260 Q911 311 911 375 Q911 439 860 478 Q809 517 713 547 L713 193 Z" /><glyph glyph-name="percent" unicode="%" d="M57 1044 Q57 1191 151 1288.5 Q245 1386 395 1386 Q547 1386 642 1288.5 Q737 1191 737 1044 Q737 900 642 804.5 Q547 709 395 709 Q245 709 151 804 Q57 899 57 1044 ZM215 1044 Q215 957 266 900.5 Q317 844 395 844 Q475 844 526.5 900 Q578 956 578 1044 Q578 1136 526.5 1192.5 Q475 1249 395 1249 Q316 1249 265.5 1192 Q215 1135 215 1044 ZM264 0 L1137 1366 L1274 1366 L399 0 L264 0 ZM793 311 Q793 458 886.5 555.5 Q980 653 1130 653 Q1280 653 1375 555.5 Q1470 458 1470 311 Q1470 167 1375 71 Q1280 -25 1130 -25 Q980 -25 886.5 70.5 Q793 166 793 311 ZM950 311 Q950 222 1000 166.5 Q1050 111 1130 111 Q1210 111 1261.5 166.5 Q1313 222 1313 311 Q1313 403 1261.5 459.5 Q1210 516 1130 516 Q1050 516 1000 459.5 Q950 403 950 311 Z" /><glyph glyph-name="ampersand" unicode="&amp;" d="M59 365 Q59 426 75.5 479 Q92 532 118 572 Q144 612 184.5 648.5 Q225 685 264.5 711 Q304 737 356 764 Q260 936 260 1063 Q260 1201 366 1293.5 Q472 1386 631 1386 Q776 1386 872.5 1310.5 Q969 1235 969 1106 Q969 1063 958.5 1024 Q948 985 932 955 Q916 925 887.5 895.5 Q859 866 833.5 845.5 Q808 825 768.5 801.5 Q729 778 700.5 763.5 Q672 749 627 727 Q693 639 762 559 Q845 458 897 401 Q986 540 1032 686 L1208 606 Q1112 393 1018 268 Q1131 147 1284 0 L1004 0 Q959 39 883 119 Q712 -25 500 -25 Q308 -25 183.5 76.5 Q59 178 59 365 ZM289 383 Q289 275 358.5 211 Q428 147 526 147 Q646 147 762 244 Q634 383 594 432 Q504 540 442 629 Q289 529 289 383 ZM477 1059 Q477 971 545 852 Q599 878 636.5 900.5 Q674 923 708.5 952.5 Q743 982 760.5 1018 Q778 1054 778 1096 Q778 1157 739.5 1192 Q701 1227 641 1227 Q571 1227 524 1179.5 Q477 1132 477 1059 Z" /><glyph glyph-name="quotesingle" unicode="&#39;" d="M98 1266 Q98 1316 133 1351 Q168 1386 219 1386 Q269 1386 304.5 1350.5 Q340 1315 340 1266 Q340 1250 322 1134 Q304 1018 286 910 L268 801 L170 801 Q98 1231 98 1266 Z" /><glyph glyph-name="parenleft" unicode="(" d="M168 10 Q86 251 86 498 Q86 745 168 984.5 Q250 1224 395 1403 L528 1303 Q421 1102 370 915.5 Q319 729 319 498 Q319 267 370 81 Q421 -105 528 -305 L395 -408 Q250 -231 168 10 Z" /><glyph glyph-name="parenright" unicode=")" d="M35 -305 Q143 -106 194.5 80 Q246 266 246 498 Q246 730 194.5 916 Q143 1102 35 1303 L168 1403 Q314 1224 396.5 984.5 Q479 745 479 498 Q479 250 396.5 9.5 Q314 -231 168 -408 L35 -305 Z" /><glyph glyph-name="asterisk" unicode="*" d="M59 973 L262 1077 L59 1182 L115 1280 L307 1157 L297 1386 L412 1386 L399 1157 L592 1280 L649 1182 L446 1077 L649 973 L592 874 L399 999 L412 770 L297 770 L307 999 L115 874 L59 973 Z" /><glyph glyph-name="plus" unicode="+" d="M59 621 L59 760 L438 760 L438 1169 L590 1169 L590 760 L969 760 L969 621 L590 621 L590 197 L438 197 L438 621 L59 621 Z" /><glyph glyph-name="comma" unicode="," d="M106 123 Q106 181 147.5 222.5 Q189 264 246 264 Q312 264 359 214 Q406 164 406 78 Q406 -25 353 -117.5 Q300 -210 213 -272 L117 -193 Q167 -163 210.5 -107.5 Q254 -52 264 0 Q246 -6 229 -6 Q176 -6 141 30 Q106 66 106 123 Z" /><glyph glyph-name="hyphen" unicode="-" d="M61 403 L61 588 L553 588 L553 403 L61 403 Z" /><glyph glyph-name="period" unicode="." d="M106 121 Q106 179 148.5 221.5 Q191 264 250 264 Q308 264 350.5 222 Q393 180 393 121 Q393 62 350.5 19.5 Q308 -23 250 -23 Q192 -23 149 19.5 Q106 62 106 121 Z" /><glyph glyph-name="slash" unicode="/" d="M0 -41 L485 1407 L645 1407 L160 -41 L0 -41 Z" /><glyph glyph-name="zero" unicode="0" d="M103.5 476 Q84 576 84 682 Q84 788 103.5 887.5 Q123 987 166.5 1078 Q210 1169 272.5 1237 Q335 1305 427.5 1345.5 Q520 1386 631 1386 Q742 1386 834.5 1345.5 Q927 1305 989.5 1237 Q1052 1169 1095.5 1078 Q1139 987 1158.5 887.5 Q1178 788 1178 682 Q1178 576 1158.5 476 Q1139 376 1095.5 284.5 Q1052 193 989.5 124.5 Q927 56 834.5 15.5 Q742 -25 631 -25 Q520 -25 427.5 15.5 Q335 56 272.5 124.5 Q210 193 166.5 284.5 Q123 376 103.5 476 ZM344.5 869.5 Q328 784 328 682 Q328 580 344.5 494.5 Q361 409 395.5 338.5 Q430 268 490 228 Q550 188 631 188 Q712 188 772 228 Q832 268 866.5 338.5 Q901 409 917.5 494.5 Q934 580 934 682 Q934 784 917.5 869.5 Q901 955 866.5 1025 Q832 1095 772 1134.5 Q712 1174 631 1174 Q550 1174 490 1134.5 Q430 1095 395.5 1025 Q361 955 344.5 869.5 Z" /><glyph glyph-name="one" unicode="1" d="M31 969 L424 1366 L633 1366 L633 0 L393 0 L393 1055 L170 823 L31 969 Z" /><glyph glyph-name="two" unicode="2" d="M84 1167 Q172 1273 306.5 1329.5 Q441 1386 588 1386 Q723 1386 833.5 1338.5 Q944 1291 1013.5 1193.5 Q1083 1096 1083 965 Q1083 873 1043 781.5 Q1003 690 920 595.5 Q837 501 735 411.5 Q633 322 485 211 L1092 211 L1092 0 L102 0 L102 188 Q247 298 342 372 Q437 446 528 523 Q619 600 671 654 Q723 708 765 764 Q807 820 823.5 868 Q840 916 840 965 Q840 1066 767 1120 Q694 1174 592 1174 Q367 1174 223 1010 L84 1167 Z" /><glyph glyph-name="three" unicode="3" d="M49 197 L178 354 Q244 277 346 232.5 Q448 188 557 188 Q691 188 766.5 244.5 Q842 301 842 397 Q842 590 539 590 Q401 590 381 588 L381 803 Q406 801 539 801 Q666 801 742.5 846 Q819 891 819 981 Q819 1073 741.5 1123.5 Q664 1174 543 1174 Q342 1174 190 1022 L68 1171 Q151 1269 277 1327.5 Q403 1386 565 1386 Q789 1386 924 1287 Q1059 1188 1059 1018 Q1059 953 1033 896.5 Q1007 840 963.5 802 Q920 764 868.5 739.5 Q817 715 762 705 Q814 700 868 677 Q922 654 970 614.5 Q1018 575 1048.5 511.5 Q1079 448 1079 373 Q1079 197 938.5 86 Q798 -25 565 -25 Q391 -25 257 37 Q123 99 49 197 Z" /><glyph glyph-name="four" unicode="4" d="M57 309 L57 502 L618 1366 L948 1366 L948 520 L1130 520 L1130 309 L948 309 L948 0 L709 0 L709 309 L57 309 ZM293 520 L709 520 L709 1151 L293 520 Z" /><glyph glyph-name="five" unicode="5" d="M115 186 L252 350 Q395 188 621 188 Q747 188 824 257 Q901 326 901 428 Q901 539 826.5 605.5 Q752 672 627 672 Q453 672 328 553 L158 602 L158 1366 L1053 1366 L1053 1155 L397 1155 L397 760 Q449 812 531 845.5 Q613 879 707 879 Q823 879 921 828 Q1019 777 1081 675 Q1143 573 1143 438 Q1143 227 998.5 101 Q854 -25 623 -25 Q294 -25 115 186 Z" /><glyph glyph-name="six" unicode="6" d="M84 680 Q84 881 151 1038.5 Q218 1196 356 1291 Q494 1386 686 1386 Q925 1386 1079 1235 L967 1053 Q909 1114 844 1144 Q779 1174 686 1174 Q576 1174 493 1111 Q410 1048 368 946.5 Q326 845 326 723 Q326 696 328 684 Q378 760 479 817 Q580 874 694 874 Q787 874 869 845.5 Q951 817 1014.5 763.5 Q1078 710 1114.5 625 Q1151 540 1151 434 Q1151 239 1011 107 Q871 -25 647 -25 Q530 -25 435 12 Q340 49 275.5 113.5 Q211 178 167 268 Q123 358 103.5 461 Q84 564 84 680 ZM330 508 Q334 461 346.5 418 Q359 375 383 332 Q407 289 440.5 258 Q474 227 524 207.5 Q574 188 635 188 Q761 188 835 261 Q909 334 909 426 Q909 546 829.5 608 Q750 670 629 670 Q542 670 462.5 626 Q383 582 330 508 Z" /><glyph glyph-name="seven" unicode="7" d="M55 1155 L55 1366 L1040 1366 L1040 1200 L510 0 L248 0 L764 1155 L55 1155 Z" /><glyph glyph-name="eight" unicode="8" d="M86 350 Q86 474 173 567.5 Q260 661 393 705 Q266 745 187.5 825.5 Q109 906 109 1028 Q109 1119 152.5 1189.5 Q196 1260 268.5 1302 Q341 1344 428 1365 Q515 1386 610 1386 Q684 1386 754.5 1373.5 Q825 1361 890.5 1332.5 Q956 1304 1004.5 1263 Q1053 1222 1082.5 1161.5 Q1112 1101 1112 1028 Q1112 906 1032.5 826 Q953 746 825 705 Q958 661 1045.5 567.5 Q1133 474 1133 350 Q1133 232 1059.5 145.5 Q986 59 869 17 Q752 -25 610 -25 Q466 -25 349.5 16.5 Q233 58 159.5 144.5 Q86 231 86 350 ZM328 381 Q328 294 409 241 Q490 188 610 188 Q728 188 809.5 241 Q891 294 891 381 Q891 431 859.5 472.5 Q828 514 781 538.5 Q734 563 690 577.5 Q646 592 610 596 Q582 593 547.5 583.5 Q513 574 473.5 556 Q434 538 402.5 515 Q371 492 349.5 456.5 Q328 421 328 381 ZM350 991 Q350 946 377.5 909.5 Q405 873 449.5 851 Q494 829 532.5 817 Q571 805 610 799 Q649 805 687 817.5 Q725 830 769 851.5 Q813 873 840.5 909.5 Q868 946 868 991 Q868 1075 795 1124.5 Q722 1174 610 1174 Q495 1174 422.5 1125 Q350 1076 350 991 Z" /><glyph glyph-name="nine" unicode="9" d="M78 930 Q78 1056 139.5 1160 Q201 1264 317 1326.5 Q433 1389 582 1389 Q699 1389 794 1352 Q889 1315 953.5 1250 Q1018 1185 1062 1095 Q1106 1005 1125.5 902 Q1145 799 1145 682 Q1145 564 1120.5 458 Q1096 352 1046.5 264 Q997 176 926 112 Q855 48 757 12.5 Q659 -23 543 -23 Q304 -23 152 129 L262 309 Q320 250 385.5 220 Q451 190 543 190 Q633 190 703.5 228.5 Q774 267 816.5 331.5 Q859 396 881 474.5 Q903 553 903 639 L903 680 Q851 603 750 545 Q649 487 537 487 Q411 487 308.5 536 Q206 585 142 687.5 Q78 790 78 930 ZM322 938 Q322 819 401.5 756.5 Q481 694 600 694 Q687 694 767.5 737 Q848 780 899 854 Q894 913 875 967 Q856 1021 821.5 1069.5 Q787 1118 728 1147 Q669 1176 594 1176 Q469 1176 395.5 1102 Q322 1028 322 938 Z" /><glyph glyph-name="colon" unicode=":" d="M106 121 Q106 179 148.5 221.5 Q191 264 250 264 Q308 264 350.5 222 Q393 180 393 121 Q393 62 350.5 19.5 Q308 -23 250 -23 Q192 -23 149 19.5 Q106 62 106 121 ZM148.5 759.5 Q106 802 106 860 Q106 918 149 961 Q192 1004 250 1004 Q308 1004 350.5 961.5 Q393 919 393 860 Q393 802 350.5 759.5 Q308 717 250 717 Q191 717 148.5 759.5 Z" /><glyph glyph-name="semicolon" unicode=";" d="M106 129 Q106 187 147.5 228.5 Q189 270 246 270 Q312 270 359 220 Q406 170 406 84 Q406 -19 353 -111.5 Q300 -204 213 -266 L117 -186 Q168 -156 211 -100.5 Q254 -45 264 6 Q246 0 229 0 Q176 0 141 36 Q106 72 106 129 ZM106 860 Q106 918 149 961 Q192 1004 250 1004 Q308 1004 350.5 961.5 Q393 919 393 860 Q393 803 350.5 760 Q308 717 250 717 Q192 717 149 760 Q106 803 106 860 Z" /><glyph glyph-name="less" unicode="&lt;" d="M59 608 L59 762 L969 1188 L969 1022 L221 684 L969 348 L969 184 L59 608 Z" /><glyph glyph-name="equal" unicode="=" d="M59 420 L59 557 L969 557 L969 420 L59 420 ZM59 809 L59 948 L969 948 L969 809 L59 809 Z" /><glyph glyph-name="greater" unicode="&gt;" d="M59 184 L59 348 L805 684 L59 1022 L59 1188 L969 762 L969 608 L59 184 Z" /><glyph glyph-name="question" unicode="?" d="M27 1184 Q106 1280 221 1333 Q336 1386 473 1386 Q663 1386 776 1296 Q889 1206 889 1065 Q889 994 862 935 Q835 876 794 838.5 Q753 801 705.5 764.5 Q658 728 617 700 Q576 672 549 634 Q522 596 522 553 Q522 499 567 461 L387 401 Q313 472 313 575 Q313 626 331 669.5 Q349 713 378.5 744 Q408 775 443 802.5 Q478 830 513 854.5 Q548 879 577.5 904 Q607 929 625 960 Q643 991 643 1026 Q643 1090 593.5 1132 Q544 1174 449 1174 Q281 1174 164 1030 L27 1184 ZM317 121 Q317 179 359.5 221.5 Q402 264 461 264 Q520 264 562 222 Q604 180 604 121 Q604 62 561.5 19.5 Q519 -23 461 -23 Q402 -23 359.5 19.5 Q317 62 317 121 Z" /><glyph glyph-name="at" unicode="@" d="M72 500 Q72 714 186 901 Q300 1088 487.5 1197.5 Q675 1307 885 1307 Q1074 1307 1223 1220 Q1372 1133 1451 988.5 Q1530 844 1530 670 Q1530 550 1495 452.5 Q1460 355 1403.5 296 Q1347 237 1280.5 205.5 Q1214 174 1147 174 Q1061 174 1010.5 219.5 Q960 265 952 332 L950 344 Q895 267 812.5 220.5 Q730 174 643 174 Q499 174 413.5 268.5 Q328 363 328 514 Q328 650 395.5 767.5 Q463 885 571.5 952.5 Q680 1020 799 1020 Q890 1020 957.5 979.5 Q1025 939 1057 874 L1081 989 L1274 989 L1163 467 Q1159 443 1159 420 Q1159 372 1182.5 347 Q1206 322 1243 322 Q1275 322 1309 341.5 Q1343 361 1375 400 Q1407 439 1427.5 509.5 Q1448 580 1448 670 Q1448 919 1291.5 1075 Q1135 1231 877 1231 Q762 1231 651.5 1192.5 Q541 1154 451 1085 Q361 1016 292 926 Q223 836 185 726.5 Q147 617 147 504 Q147 343 222 211.5 Q297 80 430.5 5 Q564 -70 729 -70 Q927 -70 1106 43 L1147 -14 Q947 -143 721 -143 Q538 -143 389 -58 Q240 27 156 174 Q72 321 72 500 ZM526 528 Q526 439 576.5 383.5 Q627 328 713 328 Q863 328 973 483 L1028 741 Q1007 790 959.5 828 Q912 866 842 866 Q711 866 618.5 762.5 Q526 659 526 528 Z" /><glyph glyph-name="A" unicode="a" d="M2 0 L539 1366 L838 1366 L1374 0 L1102 0 L1001 262 L375 262 L274 0 L2 0 ZM442 473 L934 473 L688 1124 L442 473 Z" /><glyph glyph-name="B" unicode="b" d="M145 0 L145 1366 L817 1366 Q999 1366 1102.5 1267 Q1206 1168 1206 1018 Q1206 894 1137.5 810 Q1069 726 969 705 Q1079 688 1156 591 Q1233 494 1233 369 Q1233 206 1128 103 Q1023 0 836 0 L145 0 ZM385 211 L778 211 Q876 211 931.5 261.5 Q987 312 987 401 Q987 482 932 536 Q877 590 778 590 L385 590 L385 211 ZM385 801 L768 801 Q858 801 909.5 850 Q961 899 961 977 Q961 1056 909.5 1105.5 Q858 1155 768 1155 L385 1155 L385 801 Z" /><glyph glyph-name="C" unicode="c" d="M139.5 395 Q84 528 84 682 Q84 836 139.5 969 Q195 1102 291 1193.5 Q387 1285 519 1337 Q651 1389 801 1389 Q1158 1389 1350 1081 L1145 977 Q1094 1065 1001 1120.5 Q908 1176 801 1176 Q598 1176 464 1036.5 Q330 897 330 682 Q330 467 464 327.5 Q598 188 801 188 Q909 188 1001.5 243 Q1094 298 1145 387 L1350 283 Q1155 -25 801 -25 Q651 -25 519 27 Q387 79 291 170.5 Q195 262 139.5 395 Z" /><glyph glyph-name="D" unicode="d" d="M145 0 L145 1366 L653 1366 Q863 1366 1026 1279 Q1189 1192 1278.5 1036.5 Q1368 881 1368 682 Q1368 483 1278.5 328 Q1189 173 1026 86.5 Q863 0 653 0 L145 0 ZM385 211 L653 211 Q797 211 905 275.5 Q1013 340 1067.5 446 Q1122 552 1122 682 Q1122 888 998 1021.5 Q874 1155 653 1155 L385 1155 L385 211 Z" /><glyph glyph-name="E" unicode="e" d="M145 0 L145 1366 L1081 1366 L1081 1155 L385 1155 L385 801 L1067 801 L1067 590 L385 590 L385 211 L1081 211 L1081 0 L145 0 Z" /><glyph glyph-name="F" unicode="f" d="M145 0 L145 1366 L1081 1366 L1081 1155 L385 1155 L385 801 L1067 801 L1067 590 L385 590 L385 0 L145 0 Z" /><glyph glyph-name="G" unicode="g" d="M84 682 Q84 839 140.5 972.5 Q197 1106 294 1196.5 Q391 1287 522.5 1338 Q654 1389 801 1389 Q1152 1389 1352 1104 L1155 993 Q1098 1074 1005 1125 Q912 1176 801 1176 Q598 1176 464 1036.5 Q330 897 330 682 Q330 467 464 326.5 Q598 186 801 186 Q897 186 984 223 Q1071 260 1124 309 L1124 522 L717 522 L717 733 L1364 733 L1364 221 Q1259 104 1116.5 38.5 Q974 -27 801 -27 Q603 -27 440.5 60 Q278 147 181 310 Q84 473 84 682 Z" /><glyph glyph-name="H" unicode="h" d="M145 0 L145 1366 L385 1366 L385 807 L1096 807 L1096 1366 L1335 1366 L1335 0 L1096 0 L1096 596 L385 596 L385 0 L145 0 Z" /><glyph glyph-name="I" unicode="i" d="M145 0 L145 1366 L385 1366 L385 0 L145 0 Z" /><glyph glyph-name="J" unicode="j" d="M16 119 L127 301 Q232 188 360 188 Q470 188 535 255.5 Q600 323 600 436 L600 1366 L840 1366 L840 432 Q840 207 713 91 Q586 -25 379 -25 Q152 -25 16 119 Z" /><glyph glyph-name="K" unicode="k" d="M145 0 L145 1366 L385 1366 L385 715 L920 1366 L1217 1366 L662 721 L1257 0 L963 0 L504 575 L385 436 L385 0 L145 0 Z" /><glyph glyph-name="L" unicode="l" d="M145 0 L145 1366 L385 1366 L385 211 L987 211 L987 0 L145 0 Z" /><glyph glyph-name="M" unicode="m" d="M145 0 L145 1366 L483 1366 L854 467 L1227 1366 L1565 1366 L1565 0 L1325 0 L1325 1014 L905 0 L803 0 L385 1014 L385 0 L145 0 Z" /><glyph glyph-name="N" unicode="n" d="M145 0 L145 1366 L391 1366 L1090 418 L1090 1366 L1329 1366 L1329 0 L1098 0 L385 975 L385 0 L145 0 Z" /><glyph glyph-name="O" unicode="o" d="M172.5 318.5 Q84 480 84 682 Q84 884 172.5 1045.5 Q261 1207 420.5 1298 Q580 1389 782 1389 Q933 1389 1063.5 1335.5 Q1194 1282 1285.5 1188.5 Q1377 1095 1429 964 Q1481 833 1481 682 Q1481 531 1429 400 Q1377 269 1285.5 175.5 Q1194 82 1063.5 28.5 Q933 -25 782 -25 Q580 -25 420.5 66 Q261 157 172.5 318.5 ZM330 682 Q330 468 454 328 Q578 188 782 188 Q985 188 1110 328 Q1235 468 1235 682 Q1235 897 1110 1036.5 Q985 1176 782 1176 Q578 1176 454 1037 Q330 898 330 682 Z" /><glyph glyph-name="P" unicode="p" d="M145 0 L145 1366 L745 1366 Q952 1366 1072 1242.5 Q1192 1119 1192 938 Q1192 757 1071.5 633.5 Q951 510 745 510 L385 510 L385 0 L145 0 ZM385 721 L713 721 Q815 721 880.5 781 Q946 841 946 938 Q946 1035 880.5 1095 Q815 1155 713 1155 L385 1155 L385 721 Z" /><glyph glyph-name="Q" unicode="q" d="M172.5 318.5 Q84 480 84 682 Q84 884 172.5 1045.5 Q261 1207 420.5 1298 Q580 1389 782 1389 Q933 1389 1063.5 1335.5 Q1194 1282 1285.5 1188.5 Q1377 1095 1429 964 Q1481 833 1481 682 Q1481 389 1298 190 L1411 63 L1245 -76 L1126 57 Q974 -25 782 -25 Q580 -25 420.5 66 Q261 157 172.5 318.5 ZM330 682 Q330 468 454 328 Q578 188 782 188 Q888 188 975 229 L807 422 L973 559 L1141 367 Q1235 496 1235 682 Q1235 897 1110 1036.5 Q985 1176 782 1176 Q578 1176 454 1037 Q330 898 330 682 Z" /><glyph glyph-name="R" unicode="r" d="M145 0 L145 1366 L745 1366 Q946 1366 1069 1247 Q1192 1128 1192 938 Q1192 850 1165 777 Q1138 704 1091.5 655.5 Q1045 607 988.5 577 Q932 547 868 537 L1202 0 L926 0 L623 510 L385 510 L385 0 L145 0 ZM385 721 L713 721 Q815 721 880.5 781 Q946 841 946 938 Q946 1035 880.5 1095 Q815 1155 713 1155 L385 1155 L385 721 Z" /><glyph glyph-name="S" unicode="s" d="M57 193 L190 377 Q268 294 379 241 Q490 188 623 188 Q760 188 828.5 243.5 Q897 299 897 375 Q897 421 869.5 455 Q842 489 796 510.5 Q750 532 690.5 549 Q631 566 564.5 582.5 Q498 599 432 618.5 Q366 638 306.5 668.5 Q247 699 201 739.5 Q155 780 127.5 843 Q100 906 100 987 Q100 1158 238.5 1272 Q377 1386 598 1386 Q914 1386 1110 1196 L973 1018 Q896 1095 792.5 1134.5 Q689 1174 578 1174 Q473 1174 409.5 1127.5 Q346 1081 346 1004 Q346 964 373 933.5 Q400 903 446 883.5 Q492 864 552 847.5 Q612 831 677.5 814 Q743 797 809 776.5 Q875 756 935 724 Q995 692 1041 650 Q1087 608 1114 543.5 Q1141 479 1141 397 Q1141 310 1109.5 235 Q1078 160 1015.5 101 Q953 42 849.5 8.5 Q746 -25 612 -25 Q261 -25 57 193 Z" /><glyph glyph-name="T" unicode="t" d="M57 1155 L57 1366 L1124 1366 L1124 1155 L711 1155 L711 0 L471 0 L471 1155 L57 1155 Z" /><glyph glyph-name="U" unicode="u" d="M145 539 L145 1366 L387 1366 L387 547 Q387 381 477.5 284.5 Q568 188 737 188 Q904 188 994.5 284.5 Q1085 381 1085 547 L1085 1366 L1327 1366 L1327 541 Q1327 279 1176.5 127 Q1026 -25 737 -25 Q447 -25 296 127 Q145 279 145 539 Z" /><glyph glyph-name="V" unicode="v" d="M2 1366 L274 1366 L688 260 L1102 1366 L1374 1366 L838 0 L539 0 L2 1366 Z" /><glyph glyph-name="W" unicode="w" d="M12 1366 L281 1366 L547 313 L829 1366 L1020 1366 L1303 313 L1567 1366 L1835 1366 L1446 0 L1190 0 L924 1008 L659 0 L403 0 L12 1366 Z" /><glyph glyph-name="X" unicode="x" d="M6 0 L518 700 L37 1366 L324 1366 L676 864 L1026 1366 L1315 1366 L836 702 L1346 0 L1059 0 L676 535 L293 0 L6 0 Z" /><glyph glyph-name="Y" unicode="y" d="M2 1366 L276 1366 L653 780 L1026 1366 L1300 1366 L772 567 L772 0 L532 0 L532 567 L2 1366 Z" /><glyph glyph-name="Z" unicode="z" d="M90 0 L90 195 L788 1155 L90 1155 L90 1366 L1100 1366 L1100 1171 L401 211 L1114 211 L1114 0 L90 0 Z" /><glyph glyph-name="bracketleft" unicode="[" d="M90 -389 L90 1389 L506 1389 L506 1241 L248 1241 L248 -242 L506 -242 L506 -389 L90 -389 Z" /><glyph glyph-name="backslash" unicode="\" d="M0 1407 L160 1407 L645 -41 L485 -41 L0 1407 Z" /><glyph glyph-name="bracketright" unicode="]" d="M35 -242 L293 -242 L293 1241 L35 1241 L35 1389 L451 1389 L451 -389 L35 -389 L35 -242 Z" /><glyph glyph-name="asciicircum" unicode="^" d="M39 682 L369 1366 L528 1366 L856 682 L692 682 L446 1217 L203 682 L39 682 Z" /><glyph glyph-name="underscore" unicode="_" d="M-6 -82 L1161 -82 L1161 -229 L-6 -229 L-6 -82 Z" /><glyph glyph-name="grave" unicode="`" d="M0 1434 L205 1434 L492 1139 L338 1139 L0 1434 Z" /><glyph glyph-name="a" unicode="a" d="M80 303 Q80 385 110.5 448.5 Q141 512 191.5 549.5 Q242 587 301.5 606 Q361 625 424 625 Q634 625 743 498 L743 645 Q743 730 679.5 779.5 Q616 829 512 829 Q346 829 219 705 L131 854 Q300 1014 547 1014 Q633 1014 704.5 994.5 Q776 975 834 934.5 Q892 894 925 822.5 Q958 751 958 655 L958 0 L743 0 L743 106 Q687 43 604.5 9 Q522 -25 424 -25 Q362 -25 302 -4 Q242 17 191.5 56.5 Q141 96 110.5 160 Q80 224 80 303 ZM297 299 Q297 220 356.5 171.5 Q416 123 508 123 Q581 123 644 149.5 Q707 176 743 225 L743 375 Q707 424 644 450.5 Q581 477 508 477 Q416 477 356.5 428.5 Q297 380 297 299 Z" /><glyph glyph-name="b" unicode="b" d="M139 0 L139 1366 L354 1366 L354 852 Q412 930 495 972 Q578 1014 672 1014 Q865 1014 987.5 872 Q1110 730 1110 494 Q1110 254 987.5 114.5 Q865 -25 672 -25 Q577 -25 494.5 17.5 Q412 60 354 135 L354 0 L139 0 ZM354 297 Q390 241 462 203.5 Q534 166 608 166 Q736 166 812.5 257 Q889 348 889 494 Q889 640 812.5 731.5 Q736 823 608 823 Q534 823 462 784 Q390 745 354 688 L354 297 Z" /><glyph glyph-name="c" unicode="c" d="M78 496 Q78 721 221.5 867.5 Q365 1014 590 1014 Q838 1014 969 838 L827 707 Q745 823 600 823 Q466 823 383.5 732 Q301 641 301 496 Q301 350 383.5 258 Q466 166 600 166 Q742 166 827 283 L969 152 Q837 -25 590 -25 Q365 -25 221.5 122 Q78 269 78 496 Z" /><glyph glyph-name="d" unicode="d" d="M78 494 Q78 730 200.5 872 Q323 1014 518 1014 Q610 1014 693 972 Q776 930 836 852 L836 1366 L1051 1366 L1051 0 L836 0 L836 135 Q778 60 695 17.5 Q612 -25 518 -25 Q323 -25 200.5 114.5 Q78 254 78 494 ZM301 494 Q301 350 377.5 258 Q454 166 580 166 Q655 166 727 203.5 Q799 241 836 297 L836 690 Q798 747 726.5 785 Q655 823 580 823 Q454 823 377.5 731.5 Q301 640 301 494 Z" /><glyph glyph-name="e" unicode="e" d="M78 496 Q78 638 141.5 756.5 Q205 875 321 944.5 Q437 1014 580 1014 Q800 1014 933.5 862.5 Q1067 711 1067 475 L1067 424 L303 424 Q316 307 399.5 229.5 Q483 152 618 152 Q693 152 770.5 180.5 Q848 209 899 260 L997 119 Q924 49 820 12 Q716 -25 596 -25 Q371 -25 224.5 119.5 Q78 264 78 496 ZM301 575 L858 575 Q856 621 839.5 665.5 Q823 710 791 750 Q759 790 704.5 814 Q650 838 580 838 Q514 838 460.5 814.5 Q407 791 374.5 751.5 Q342 712 323.5 667.5 Q305 623 301 575 Z" /><glyph glyph-name="f" unicode="f" d="M27 801 L27 989 L190 989 L190 1044 Q190 1203 275.5 1294.5 Q361 1386 504 1386 Q658 1386 741 1300 L657 1167 Q611 1210 543 1210 Q479 1210 442.5 1168 Q406 1126 406 1044 L406 989 L606 989 L606 801 L406 801 L406 0 L190 0 L190 801 L27 801 Z" /><glyph glyph-name="g" unicode="g" d="M78 506 Q78 741 200 877.5 Q322 1014 516 1014 Q610 1014 692 972 Q774 930 834 852 L834 989 L1049 989 L1049 51 Q1049 -52 1019 -132.5 Q989 -213 940.5 -262.5 Q892 -312 824.5 -344 Q757 -376 688 -388.5 Q619 -401 541 -401 Q410 -401 312.5 -368 Q215 -335 127 -254 L227 -98 Q337 -225 541 -225 Q597 -225 646.5 -211 Q696 -197 739.5 -167.5 Q783 -138 808.5 -84 Q834 -30 834 43 L834 162 Q775 86 692.5 42 Q610 -2 516 -2 Q322 -2 200 132.5 Q78 267 78 506 ZM377 736 Q301 649 301 506 Q301 363 377 275.5 Q453 188 580 188 Q654 188 726 227 Q798 266 834 322 L834 690 Q798 746 726 784.5 Q654 823 580 823 Q453 823 377 736 Z" /><glyph glyph-name="h" unicode="h" d="M139 0 L139 1366 L354 1366 L354 854 Q410 920 503 967 Q596 1014 705 1014 Q864 1014 944 934 Q1024 854 1024 700 L1024 0 L809 0 L809 623 Q809 732 757.5 777.5 Q706 823 608 823 Q531 823 463.5 784.5 Q396 746 354 690 L354 0 L139 0 Z" /><glyph glyph-name="i" unicode="i" d="M152.5 1149 Q113 1188 113 1243 Q113 1298 152.5 1337 Q192 1376 246 1376 Q302 1376 340.5 1337 Q379 1298 379 1243 Q379 1188 340.5 1149 Q302 1110 246 1110 Q192 1110 152.5 1149 ZM139 0 L139 989 L354 989 L354 0 L139 0 Z" /><glyph glyph-name="j" unicode="j" d="M-207 -330 L-143 -170 Q-81 -225 -6 -225 Q60 -225 99.5 -183 Q139 -141 139 -57 L139 989 L354 989 L354 -57 Q354 -218 270.5 -309.5 Q187 -401 27 -401 Q-55 -401 -104 -385 Q-153 -369 -207 -330 ZM152.5 1149 Q113 1188 113 1243 Q113 1298 152.5 1337 Q192 1376 246 1376 Q302 1376 340.5 1337 Q379 1298 379 1243 Q379 1188 340.5 1149 Q302 1110 246 1110 Q192 1110 152.5 1149 Z" /><glyph glyph-name="k" unicode="k" d="M139 0 L139 1366 L354 1366 L354 512 L791 989 L1057 989 L645 541 L1065 0 L795 0 L492 408 L354 266 L354 0 L139 0 Z" /><glyph glyph-name="l" unicode="l" d="M139 0 L139 1366 L354 1366 L354 0 L139 0 Z" /><glyph glyph-name="m" unicode="m" d="M139 0 L139 989 L354 989 L354 854 Q391 910 482.5 962 Q574 1014 676 1014 Q783 1014 851.5 965 Q920 916 946 831 Q993 905 1085.5 959.5 Q1178 1014 1282 1014 Q1420 1014 1493.5 939 Q1567 864 1567 715 L1567 0 L1352 0 L1352 645 Q1352 728 1312.5 775.5 Q1273 823 1190 823 Q1123 823 1060 783.5 Q997 744 961 692 L961 0 L745 0 L745 645 Q745 823 582 823 Q516 823 453.5 783.5 Q391 744 354 690 L354 0 L139 0 Z" /><glyph glyph-name="n" unicode="n" d="M139 0 L139 989 L354 989 L354 854 Q410 920 502 967 Q594 1014 702 1014 Q860 1014 941 932 Q1022 850 1022 696 L1022 0 L807 0 L807 618 Q807 728 755.5 775.5 Q704 823 608 823 Q530 823 462 784.5 Q394 746 354 690 L354 0 L139 0 Z" /><glyph glyph-name="o" unicode="o" d="M78 496 Q78 602 114 696.5 Q150 791 214.5 861.5 Q279 932 375 973 Q471 1014 586 1014 Q740 1014 857.5 943 Q975 872 1035.5 755.5 Q1096 639 1096 496 Q1096 352 1035.5 234.5 Q975 117 857.5 46 Q740 -25 586 -25 Q471 -25 375 16.5 Q279 58 214.5 128.5 Q150 199 114 294 Q78 389 78 496 ZM301 496 Q301 358 378 262 Q455 166 586 166 Q719 166 795.5 261.5 Q872 357 872 496 Q872 633 795.5 728 Q719 823 586 823 Q455 823 378 728 Q301 633 301 496 Z" /><glyph glyph-name="p" unicode="p" d="M139 -377 L139 989 L354 989 L354 854 Q410 929 493.5 971.5 Q577 1014 672 1014 Q868 1014 989 875 Q1110 736 1110 496 Q1110 255 988.5 115 Q867 -25 672 -25 Q578 -25 496 16.5 Q414 58 354 137 L354 -377 L139 -377 ZM354 299 Q390 244 462.5 205 Q535 166 608 166 Q734 166 810.5 258 Q887 350 887 496 Q887 640 810.5 731.5 Q734 823 608 823 Q534 823 462 784.5 Q390 746 354 690 L354 299 Z" /><glyph glyph-name="q" unicode="q" d="M74 496 Q74 736 195 875 Q316 1014 512 1014 Q607 1014 689.5 971.5 Q772 929 829 854 L829 989 L1044 989 L1044 -377 L829 -377 L829 137 Q707 -25 512 -25 Q317 -25 195.5 115 Q74 255 74 496 ZM297 496 Q297 350 373 258 Q449 166 575 166 Q648 166 720.5 205 Q793 244 829 299 L829 690 Q793 746 721 784.5 Q649 823 575 823 Q449 823 373 731.5 Q297 640 297 496 Z" /><glyph glyph-name="r" unicode="r" d="M139 0 L139 989 L354 989 L354 844 Q413 918 498 965 Q583 1012 676 1012 L676 799 Q649 805 608 805 Q540 805 463 765.5 Q386 726 354 674 L354 0 L139 0 Z" /><glyph glyph-name="s" unicode="s" d="M53 129 L152 285 Q208 228 301.5 186.5 Q395 145 487 145 Q581 145 631.5 182 Q682 219 682 279 Q682 318 649 344 Q616 370 563.5 384.5 Q511 399 447 412 Q383 425 319 445 Q255 465 202.5 495 Q150 525 117 580.5 Q84 636 84 713 Q84 840 188 927 Q292 1014 473 1014 Q700 1014 858 874 L768 723 Q722 776 643.5 809 Q565 842 475 842 Q391 842 341 808 Q291 774 291 721 Q291 690 316.5 668 Q342 646 384 634 Q426 622 480 608.5 Q534 595 590 583.5 Q646 572 700 548 Q754 524 796 492.5 Q838 461 863.5 407 Q889 353 889 283 Q889 148 780 61.5 Q671 -25 477 -25 Q350 -25 239.5 15 Q129 55 53 129 Z" /><glyph glyph-name="t" unicode="t" d="M18 801 L18 989 L182 989 L182 1260 L397 1260 L397 989 L598 989 L598 801 L397 801 L397 283 Q397 231 422 198.5 Q447 166 492 166 Q521 166 548 176.5 Q575 187 588 201 L639 39 Q572 -25 436 -25 Q312 -25 247 40.5 Q182 106 182 229 L182 801 L18 801 Z" /><glyph glyph-name="u" unicode="u" d="M139 289 L139 989 L354 989 L354 367 Q354 257 405 211.5 Q456 166 553 166 Q630 166 698 203 Q766 240 807 295 L807 989 L1022 989 L1022 0 L807 0 L807 131 Q747 64 656.5 19.5 Q566 -25 457 -25 Q299 -25 219 55 Q139 135 139 289 Z" /><glyph glyph-name="v" unicode="v" d="M-4 989 L225 989 L514 248 L803 989 L1034 989 L631 0 L399 0 L-4 989 Z" /><glyph glyph-name="w" unicode="w" d="M10 989 L233 989 L442 270 L678 989 L866 989 L1102 270 L1311 989 L1534 989 L1227 0 L1001 0 L772 725 L543 0 L317 0 L10 989 Z" /><glyph glyph-name="x" unicode="x" d="M10 0 L373 508 L31 989 L272 989 L508 653 L741 989 L983 989 L641 508 L1006 0 L764 0 L508 365 L250 0 L10 0 Z" /><glyph glyph-name="y" unicode="y" d="M-4 989 L225 989 L514 248 L803 989 L1034 989 L557 -178 Q508 -298 424 -348.5 Q340 -399 217 -401 Q150 -401 96 -387 L129 -195 Q166 -211 211 -211 Q264 -211 297.5 -192 Q331 -173 352 -125 L401 -12 L-4 989 Z" /><glyph glyph-name="z" unicode="z" d="M94 0 L94 162 L584 801 L94 801 L94 989 L870 989 L870 831 L377 186 L879 186 L879 0 L94 0 Z" /><glyph glyph-name="braceleft" unicode="{" d="M8 436 L8 563 Q60 563 87.5 602.5 Q115 642 115 702 L115 1083 Q115 1219 201.5 1304 Q288 1389 406 1389 L530 1389 L530 1241 L406 1241 Q351 1241 312.5 1196.5 Q274 1152 274 1083 L274 682 Q274 540 180 500 Q274 460 274 317 L274 -84 Q274 -152 312.5 -197 Q351 -242 406 -242 L530 -242 L530 -389 L406 -389 Q288 -389 201.5 -305.5 Q115 -222 115 -86 L115 297 Q115 357 87.5 396.5 Q60 436 8 436 Z" /><glyph glyph-name="bar" unicode="|" d="M145 -41 L145 1407 L293 1407 L293 -41 L145 -41 Z" /><glyph glyph-name="braceright" unicode="}" d="M35 -242 L160 -242 Q215 -242 253 -197 Q291 -152 291 -84 L291 317 Q291 460 385 500 Q291 540 291 682 L291 1083 Q291 1152 253 1196.5 Q215 1241 160 1241 L35 1241 L35 1389 L160 1389 Q278 1389 364.5 1304 Q451 1219 451 1083 L451 702 Q451 642 478 602.5 Q505 563 557 563 L557 436 Q505 436 478 396.5 Q451 357 451 297 L451 -86 Q451 -222 364.5 -305.5 Q278 -389 160 -389 L35 -389 L35 -242 Z" /><glyph glyph-name="asciitilde" unicode="~" d="M53 870 Q59 937 68 992.5 Q77 1048 92 1107 Q107 1166 129 1210 Q151 1254 181.5 1290 Q212 1326 254.5 1345 Q297 1364 350 1364 Q403 1364 443.5 1343.5 Q484 1323 508 1289.5 Q532 1256 549.5 1216 Q567 1176 580 1136.5 Q593 1097 606.5 1063.5 Q620 1030 640 1009.5 Q660 989 688 989 Q805 989 834 1366 L983 1348 Q976 1266 965.5 1201 Q955 1136 933.5 1068.5 Q912 1001 881 956 Q850 911 800.5 882.5 Q751 854 688 854 Q627 854 582 881.5 Q537 909 514.5 950.5 Q492 992 472.5 1040.5 Q453 1089 440 1130.5 Q427 1172 404.5 1199.5 Q382 1227 350 1227 Q239 1227 205 852 L53 870 Z" /><glyph glyph-name="nonbreakingspace" unicode=" " d="" /><glyph glyph-name="exclamdown" unicode="¡" d="M109 868 Q109 925 150.5 967.5 Q192 1010 250 1010 Q308 1010 350.5 967.5 Q393 925 393 868 Q393 810 350.5 767.5 Q308 725 250 725 Q192 725 150.5 767 Q109 809 109 868 ZM121 -377 L158 569 L344 569 L383 -377 L121 -377 Z" /><glyph glyph-name="cent" unicode="¢" d="M78 496 Q78 697 195.5 838 Q313 979 504 1008 L504 1157 L664 1157 L664 1010 Q858 987 969 838 L827 707 Q762 796 664 817 L664 172 Q761 193 827 283 L969 152 Q858 3 664 -20 L664 -205 L504 -205 L504 -18 Q313 10 195.5 151 Q78 292 78 496 ZM301 496 Q301 379 355.5 294 Q410 209 504 180 L504 809 Q410 778 355.5 695 Q301 612 301 496 Z" /><glyph glyph-name="sterling" unicode="£" d="M43 549 L43 692 L213 692 Q175 741 154 773.5 Q133 806 113.5 860 Q94 914 94 971 Q94 1090 163 1186.5 Q232 1283 341.5 1334.5 Q451 1386 575 1386 Q733 1386 848 1325.5 Q963 1265 1024 1147 L834 1034 Q807 1101 744 1145.5 Q681 1190 602 1190 Q498 1190 426 1128.5 Q354 1067 354 967 Q354 932 360.5 901 Q367 870 383.5 839 Q400 808 411 790.5 Q422 773 447 738.5 Q472 704 481 692 L782 692 L782 549 L545 549 Q551 522 551 489 Q551 411 511.5 348 Q472 285 408 244 Q458 260 512 260 Q576 260 659 223 Q742 186 795 186 Q856 186 905 209.5 Q954 233 979 264 L1075 74 Q978 -27 784 -27 Q724 -27 670 -12.5 Q616 2 583.5 19.5 Q551 37 506 51.5 Q461 66 416 66 Q325 66 176 -14 L94 154 Q208 207 273 279 Q338 351 338 434 Q338 490 311 549 L43 549 Z" /><glyph glyph-name="currency" unicode="¤" d="M51 1130 L180 1257 L336 1100 Q461 1180 627 1180 Q790 1180 915 1100 L1071 1257 L1200 1128 L1047 975 Q1135 845 1135 682 Q1135 517 1047 387 L1200 238 L1071 111 L915 262 Q793 182 627 182 Q463 182 334 264 L182 111 L53 238 L205 389 Q119 520 119 682 Q119 845 207 975 L51 1130 ZM336 682 Q336 553 414.5 464 Q493 375 627 375 Q762 375 840 464 Q918 553 918 682 Q918 810 840 897.5 Q762 985 627 985 Q493 985 414.5 897 Q336 809 336 682 Z" /><glyph glyph-name="yen" unicode="¥" d="M2 1366 L276 1366 L653 780 L1026 1366 L1300 1366 L862 705 L1260 705 L1260 567 L772 567 L772 379 L1260 379 L1260 242 L772 242 L772 0 L532 0 L532 242 L47 242 L47 379 L532 379 L532 567 L47 567 L47 705 L440 705 L2 1366 Z" /><glyph glyph-name="brokenbar" unicode="¦" d="M145 -41 L145 606 L293 606 L293 -41 L145 -41 ZM145 760 L145 1407 L293 1407 L293 760 L145 760 Z" /><glyph glyph-name="section" unicode="§" d="M57 -6 L152 131 Q208 71 294.5 28.5 Q381 -14 477 -14 Q570 -14 626 23.5 Q682 61 682 129 Q682 168 656.5 196 Q631 224 589 239.5 Q547 255 493 270.5 Q439 286 383 298.5 Q327 311 273 334 Q219 357 177 386.5 Q135 416 109.5 466.5 Q84 517 84 584 Q84 682 147 748 Q210 814 299 842 Q84 917 84 1098 Q84 1221 191 1303.5 Q298 1386 473 1386 Q719 1386 856 1245 L768 1116 Q717 1172 639 1202.5 Q561 1233 481 1233 Q394 1233 342.5 1197 Q291 1161 291 1100 Q291 1060 324 1033.5 Q357 1007 409.5 992 Q462 977 526 963.5 Q590 950 654 929.5 Q718 909 770.5 878.5 Q823 848 856 791.5 Q889 735 889 657 Q889 571 843.5 503.5 Q798 436 711 395 Q889 321 889 145 Q889 0 775 -83 Q661 -166 477 -166 Q228 -166 57 -6 ZM291 612 Q291 586 299.5 565.5 Q308 545 328.5 529 Q349 513 366.5 502 Q384 491 419.5 480 Q455 469 475 464 Q495 459 537 449 Q608 479 643 520 Q678 561 678 621 Q678 658 662 686 Q646 714 615.5 733 Q585 752 554 763.5 Q523 775 481 786 Q376 760 333.5 717 Q291 674 291 612 Z" /><glyph glyph-name="dieresis" unicode="¨" d="M-43 1245 Q-43 1295 -8 1329.5 Q27 1364 78 1364 Q128 1364 162.5 1329 Q197 1294 197 1245 Q197 1194 162.5 1159 Q128 1124 78 1124 Q27 1124 -8 1159 Q-43 1194 -43 1245 ZM385 1245 Q385 1294 420.5 1329 Q456 1364 506 1364 Q556 1364 591.5 1329 Q627 1294 627 1245 Q627 1194 591.5 1159 Q556 1124 506 1124 Q456 1124 420.5 1159 Q385 1194 385 1245 Z" /><glyph glyph-name="copyright" unicode="©" d="M90 684 Q90 876 185 1039 Q280 1202 443 1296.5 Q606 1391 797 1391 Q941 1391 1072 1335 Q1203 1279 1297 1184.5 Q1391 1090 1447 959 Q1503 828 1503 684 Q1503 541 1447 410 Q1391 279 1297 184 Q1203 89 1072 33 Q941 -23 797 -23 Q606 -23 443 72 Q280 167 185 330 Q90 493 90 684 ZM210.5 931 Q160 813 160 684 Q160 555 210.5 437 Q261 319 346.5 233.5 Q432 148 550 97.5 Q668 47 797 47 Q926 47 1044 97.5 Q1162 148 1247.5 233.5 Q1333 319 1383.5 437 Q1434 555 1434 684 Q1434 813 1383.5 931 Q1333 1049 1247.5 1134.5 Q1162 1220 1044 1270.5 Q926 1321 797 1321 Q668 1321 550 1270.5 Q432 1220 346.5 1134.5 Q261 1049 210.5 931 ZM503 375 Q379 500 379 686 Q379 872 502.5 995 Q626 1118 805 1118 Q990 1118 1106 983 L1047 926 Q1007 980 942 1011 Q877 1042 805 1042 Q665 1042 565 942 Q465 842 465 686 Q465 532 565.5 429 Q666 326 805 326 Q878 326 943.5 358 Q1009 390 1049 444 L1108 387 Q990 250 805 250 Q627 250 503 375 Z" /><glyph glyph-name="ordfeminine" unicode="ª" d="M72 864 Q72 963 140 1018 Q208 1073 299 1073 Q437 1073 512 991 L512 1085 Q512 1141 470 1173.5 Q428 1206 362 1206 Q250 1206 168 1118 L104 1221 Q219 1327 387 1327 Q445 1327 493.5 1314.5 Q542 1302 583 1274.5 Q624 1247 647 1198 Q670 1149 670 1083 L670 668 L512 668 L512 735 Q435 651 299 651 Q208 651 140 707.5 Q72 764 72 864 ZM229 864 Q229 812 266.5 782 Q304 752 362 752 Q407 752 448 769.5 Q489 787 512 819 L512 909 Q489 939 448 957 Q407 975 362 975 Q305 975 267 944.5 Q229 914 229 864 Z" /><glyph glyph-name="guillemotleft" unicode="«" d="M61 498 L389 860 L592 860 L264 498 L592 129 L389 129 L61 498 ZM410 498 L737 860 L940 860 L612 498 L940 129 L737 129 L410 498 Z" /><glyph glyph-name="logicalnot" unicode="¬" d="M59 809 L59 948 L969 948 L969 420 L825 420 L825 809 L59 809 Z" /><glyph glyph-name="uni00AD" unicode="­" d="M61 403 L61 588 L553 588 L553 403 L61 403 Z" /><glyph glyph-name="registered" unicode="®" d="M72 952 Q72 1133 199 1259.5 Q326 1386 506 1386 Q625 1386 725 1328.5 Q825 1271 882.5 1171 Q940 1071 940 952 Q940 772 813.5 645 Q687 518 506 518 Q326 518 199 645 Q72 772 72 952 ZM133 952 Q133 798 242 689 Q351 580 506 580 Q660 580 768.5 689 Q877 798 877 952 Q877 1107 768.5 1215 Q660 1323 506 1323 Q351 1323 242 1215 Q133 1107 133 952 ZM340 702 L340 1200 L543 1200 Q608 1200 655 1158 Q702 1116 702 1049 Q702 977 656 939 Q610 901 575 901 L709 702 L625 702 L496 899 L408 899 L408 702 L340 702 ZM408 961 L543 961 Q577 961 605 986.5 Q633 1012 633 1049 Q633 1088 605 1114.5 Q577 1141 543 1141 L408 1141 L408 961 Z" /><glyph glyph-name="macron" unicode="¯" d="M0 1159 L0 1286 L743 1286 L743 1159 L0 1159 Z" /><glyph glyph-name="degree" unicode="°" d="M43 1120 Q43 1229 120.5 1307.5 Q198 1386 307 1386 Q417 1386 495 1307.5 Q573 1229 573 1120 Q573 1010 495 933 Q417 856 307 856 Q198 856 120.5 933 Q43 1010 43 1120 ZM208.5 1221.5 Q168 1179 168 1120 Q168 1061 208.5 1020 Q249 979 307 979 Q366 979 408.5 1020.5 Q451 1062 451 1120 Q451 1178 408.5 1221 Q366 1264 307 1264 Q249 1264 208.5 1221.5 Z" /><glyph glyph-name="plusminus" unicode="±" d="M59 0 L59 137 L969 137 L969 0 L59 0 ZM59 666 L59 803 L438 803 L438 1214 L590 1214 L590 803 L969 803 L969 666 L590 666 L590 240 L438 240 L438 666 L59 666 Z" /><glyph glyph-name="twosuperior" unicode="²" d="M84 1561 Q140 1627 225 1660.5 Q310 1694 401 1694 Q537 1694 626 1628.5 Q715 1563 715 1444 Q715 1339 623.5 1235.5 Q532 1132 338 995 L721 995 L721 862 L98 862 L98 983 Q361 1169 456 1261 Q551 1353 551 1432 Q551 1495 507 1528 Q463 1561 397 1561 Q328 1561 266.5 1530 Q205 1499 172 1456 L84 1561 Z" /><glyph glyph-name="threesuperior" unicode="³" d="M74 979 L158 1085 Q201 1035 264.5 1008 Q328 981 393 981 Q472 981 516.5 1012.5 Q561 1044 561 1098 Q561 1214 367 1214 Q291 1214 279 1212 L279 1346 Q303 1343 365 1343 Q547 1343 547 1452 Q547 1504 501 1532.5 Q455 1561 383 1561 Q256 1561 164 1466 L84 1565 Q203 1694 399 1694 Q543 1694 627 1633.5 Q711 1573 711 1473 Q711 1396 656.5 1346 Q602 1296 528 1284 Q600 1279 662.5 1226.5 Q725 1174 725 1087 Q725 980 636 914 Q547 848 399 848 Q289 848 205 884 Q121 920 74 979 Z" /><glyph glyph-name="acute" unicode="´" d="M0 1139 L287 1434 L492 1434 L154 1139 L0 1139 Z" /><glyph glyph-name="mu" unicode="µ" d="M139 -377 L139 989 L354 989 L354 367 Q354 164 555 164 Q630 164 698 202 Q766 240 807 295 L807 989 L1022 989 L1022 268 Q1022 221 1045.5 193.5 Q1069 166 1110 166 Q1129 166 1149 170 L1163 -12 Q1119 -25 1061 -25 Q862 -25 817 152 Q767 74 689.5 24.5 Q612 -25 524 -25 Q401 -25 354 49 L354 -377 L139 -377 Z" /><glyph glyph-name="paragraph" unicode="¶" d="M158.5 765 Q55 868 55 1014 Q55 1160 158.5 1263 Q262 1366 408 1366 L803 1366 L803 -205 L690 -205 L690 1253 L520 1253 L520 -205 L408 -205 L408 662 Q262 662 158.5 765 Z" /><glyph glyph-name="periodcentered" unicode="·" d="M106 500 Q106 558 148.5 600.5 Q191 643 250 643 Q308 643 350.5 600.5 Q393 558 393 500 Q393 443 350.5 400.5 Q308 358 250 358 Q192 358 149 400.5 Q106 443 106 500 Z" /><glyph glyph-name="cedilla" unicode="¸" d="M0 -334 L45 -240 Q118 -299 211 -299 Q258 -299 292 -279.5 Q326 -260 326 -225 Q326 -164 258 -164 Q216 -164 188 -195 L104 -147 L168 23 L281 23 L227 -109 Q260 -86 301 -86 Q360 -86 399 -125.5 Q438 -165 438 -227 Q438 -303 374 -350 Q310 -397 217 -397 Q150 -397 91.5 -379 Q33 -361 0 -334 Z" /><glyph glyph-name="onesuperior" unicode="¹" d="M20 1427 L274 1681 L418 1681 L418 862 L252 862 L252 1468 L115 1327 L20 1427 Z" /><glyph glyph-name="ordmasculine" unicode="º" d="M165 749 Q70 847 70 989 Q70 1131 165 1229 Q260 1327 414 1327 Q571 1327 665.5 1229.5 Q760 1132 760 989 Q760 846 665.5 748.5 Q571 651 414 651 Q260 651 165 749 ZM233 989 Q233 895 281 837.5 Q329 780 414 780 Q499 780 547.5 837.5 Q596 895 596 989 Q596 1081 547.5 1137.5 Q499 1194 414 1194 Q329 1194 281 1137.5 Q233 1081 233 989 Z" /><glyph glyph-name="guillemotright" unicode="»" d="M61 129 L389 498 L61 860 L264 860 L592 498 L264 129 L61 129 ZM410 129 L737 498 L410 860 L612 860 L940 498 L612 129 L410 129 Z" /><glyph glyph-name="onequarter" unicode="¼" d="M20 1112 L274 1366 L418 1366 L418 547 L252 547 L252 1153 L115 1012 L20 1112 ZM256 0 L1128 1366 L1268 1366 L393 0 L256 0 ZM911 188 L911 303 L1247 819 L1477 819 L1477 319 L1589 319 L1589 188 L1477 188 L1477 0 L1313 0 L1313 188 L911 188 ZM1075 319 L1313 319 L1313 678 L1075 319 Z" /><glyph glyph-name="onehalf" unicode="½" d="M20 1112 L274 1366 L418 1366 L418 547 L252 547 L252 1153 L115 1012 L20 1112 ZM256 0 L1128 1366 L1268 1366 L393 0 L256 0 ZM999 698 Q1055 764 1140.5 797.5 Q1226 831 1317 831 Q1453 831 1541.5 766 Q1630 701 1630 582 Q1630 477 1538.5 373.5 Q1447 270 1253 133 L1636 133 L1636 0 L1014 0 L1014 121 Q1277 307 1371.5 398.5 Q1466 490 1466 569 Q1466 632 1422.5 665 Q1379 698 1313 698 Q1243 698 1181.5 667.5 Q1120 637 1087 594 L999 698 Z" /><glyph glyph-name="threequarters" unicode="¾" d="M74 664 L158 770 Q201 720 264.5 693 Q328 666 393 666 Q472 666 516.5 697 Q561 728 561 782 Q561 899 367 899 Q291 899 279 897 L279 1030 Q295 1028 365 1028 Q547 1028 547 1137 Q547 1189 501 1217 Q455 1245 383 1245 Q255 1245 164 1151 L84 1249 Q203 1378 399 1378 Q543 1378 627 1317.5 Q711 1257 711 1157 Q711 1080 656.5 1030.5 Q602 981 528 969 Q600 964 662.5 911.5 Q725 859 725 772 Q725 665 636 598.5 Q547 532 399 532 Q289 532 205 568.5 Q121 605 74 664 ZM453 0 L1325 1366 L1464 1366 L590 0 L453 0 ZM1110 188 L1110 303 L1446 819 L1675 819 L1675 319 L1788 319 L1788 188 L1675 188 L1675 0 L1511 0 L1511 188 L1110 188 ZM1274 319 L1511 319 L1511 678 L1274 319 Z" /><glyph glyph-name="questiondown" unicode="¿" d="M49 -80 Q49 -9 76 50 Q103 109 144 146.5 Q185 184 232.5 220.5 Q280 257 321 285 Q362 313 389 351 Q416 389 416 432 Q416 486 371 524 L551 584 Q625 513 625 410 Q625 359 607 315.5 Q589 272 559.5 241 Q530 210 495 182.5 Q460 155 425 130.5 Q390 106 360.5 81 Q331 56 313 25 Q295 -6 295 -41 Q295 -105 344.5 -146.5 Q394 -188 489 -188 Q658 -188 774 -45 L911 -199 Q832 -295 717 -348 Q602 -401 465 -401 Q275 -401 162 -311 Q49 -221 49 -80 ZM334 866 Q334 925 376.5 967.5 Q419 1010 477 1010 Q536 1010 578.5 967 Q621 924 621 866 Q621 809 578 767 Q535 725 477 725 Q419 725 376.5 767 Q334 809 334 866 Z" /><glyph glyph-name="Agrave" unicode="à" d="M2 0 L539 1366 L838 1366 L1374 0 L1102 0 L1001 262 L375 262 L274 0 L2 0 ZM324 1776 L528 1776 L815 1481 L662 1481 L324 1776 ZM442 473 L934 473 L688 1124 L442 473 Z" /><glyph glyph-name="Aacute" unicode="á" d="M2 0 L539 1366 L838 1366 L1374 0 L1102 0 L1001 262 L375 262 L274 0 L2 0 ZM442 473 L934 473 L688 1124 L442 473 ZM565 1481 L852 1776 L1057 1776 L719 1481 L565 1481 Z" /><glyph glyph-name="Acircumflex" unicode="â" d="M2 0 L539 1366 L838 1366 L1374 0 L1102 0 L1001 262 L375 262 L274 0 L2 0 ZM399 1481 L590 1776 L786 1776 L983 1481 L846 1481 L688 1677 L535 1481 L399 1481 ZM442 473 L934 473 L688 1124 L442 473 Z" /><glyph glyph-name="Atilde" unicode="ã" d="M2 0 L539 1366 L838 1366 L1374 0 L1102 0 L1001 262 L375 262 L274 0 L2 0 ZM360 1489 Q360 1617 415 1690 Q470 1763 571 1763 Q610 1763 641.5 1746.5 Q673 1730 693.5 1707 Q714 1684 732 1660.5 Q750 1637 771 1620.5 Q792 1604 815 1604 Q852 1604 875.5 1641 Q899 1678 899 1751 L1018 1751 Q1018 1623 963 1550 Q908 1477 807 1477 Q767 1477 735.5 1493.5 Q704 1510 683.5 1533 Q663 1556 645.5 1579.5 Q628 1603 607 1619.5 Q586 1636 563 1636 Q525 1636 501 1599 Q477 1562 477 1489 L360 1489 ZM442 473 L934 473 L688 1124 L442 473 Z" /><glyph glyph-name="Adieresis" unicode="ä" d="M2 0 L539 1366 L838 1366 L1374 0 L1102 0 L1001 262 L375 262 L274 0 L2 0 ZM354 1587 Q354 1637 389 1671.5 Q424 1706 475 1706 Q524 1706 559 1671 Q594 1636 594 1587 Q594 1536 559.5 1501 Q525 1466 475 1466 Q424 1466 389 1501 Q354 1536 354 1587 ZM442 473 L934 473 L688 1124 L442 473 ZM782 1587 Q782 1636 817.5 1671 Q853 1706 903 1706 Q953 1706 988.5 1671 Q1024 1636 1024 1587 Q1024 1536 988.5 1501 Q953 1466 903 1466 Q853 1466 817.5 1501 Q782 1536 782 1587 Z" /><glyph glyph-name="Aring" unicode="å" d="M2 0 L539 1366 L838 1366 L1374 0 L1102 0 L1001 262 L375 262 L274 0 L2 0 ZM442 473 L934 473 L688 1124 L442 473 ZM542.5 1472.5 Q481 1534 481 1620 Q481 1706 542.5 1768.5 Q604 1831 690 1831 Q776 1831 836.5 1769 Q897 1707 897 1620 Q897 1534 836.5 1472.5 Q776 1411 690 1411 Q604 1411 542.5 1472.5 ZM584 1620 Q584 1577 615.5 1545 Q647 1513 690 1513 Q734 1513 764.5 1545 Q795 1577 795 1620 Q795 1664 764.5 1695 Q734 1726 690 1726 Q647 1726 615.5 1695 Q584 1664 584 1620 Z" /><glyph glyph-name="AE" unicode="æ" d="M-4 0 L836 1366 L1868 1366 L1868 1155 L1171 1155 L1171 801 L1853 801 L1853 590 L1171 590 L1171 211 L1868 211 L1868 0 L932 0 L932 262 L426 262 L268 0 L-4 0 ZM541 473 L932 473 L932 1124 L541 473 Z" /><glyph glyph-name="Ccedilla" unicode="ç" d="M84 682 Q84 836 139.5 969 Q195 1102 291 1193.5 Q387 1285 519 1337 Q651 1389 801 1389 Q1158 1389 1350 1081 L1145 977 Q1094 1065 1001 1120.5 Q908 1176 801 1176 Q598 1176 464 1036.5 Q330 897 330 682 Q330 467 464 327.5 Q598 188 801 188 Q909 188 1001.5 243 Q1094 298 1145 387 L1350 283 Q1163 -12 829 -25 L799 -100 Q830 -78 872 -78 Q931 -78 970.5 -117.5 Q1010 -157 1010 -219 Q1010 -295 945.5 -342 Q881 -389 788 -389 Q721 -389 662.5 -371 Q604 -353 571 -326 L616 -231 Q691 -291 782 -291 Q829 -291 863 -271.5 Q897 -252 897 -217 Q897 -156 829 -156 Q787 -156 760 -186 L676 -139 L719 -20 Q584 -7 467 50 Q350 107 265.5 197 Q181 287 132.5 412.5 Q84 538 84 682 Z" /><glyph glyph-name="Egrave" unicode="è" d="M145 0 L145 1366 L1081 1366 L1081 1155 L385 1155 L385 801 L1067 801 L1067 590 L385 590 L385 211 L1081 211 L1081 0 L145 0 ZM246 1776 L451 1776 L737 1481 L584 1481 L246 1776 Z" /><glyph glyph-name="Eacute" unicode="é" d="M145 0 L145 1366 L1081 1366 L1081 1155 L385 1155 L385 801 L1067 801 L1067 590 L385 590 L385 211 L1081 211 L1081 0 L145 0 ZM487 1481 L774 1776 L979 1776 L641 1481 L487 1481 Z" /><glyph glyph-name="Ecircumflex" unicode="ê" d="M145 0 L145 1366 L1081 1366 L1081 1155 L385 1155 L385 801 L1067 801 L1067 590 L385 590 L385 211 L1081 211 L1081 0 L145 0 ZM322 1481 L512 1776 L709 1776 L905 1481 L768 1481 L610 1677 L457 1481 L322 1481 Z" /><glyph glyph-name="Edieresis" unicode="ë" d="M145 0 L145 1366 L1081 1366 L1081 1155 L385 1155 L385 801 L1067 801 L1067 590 L385 590 L385 211 L1081 211 L1081 0 L145 0 ZM279 1587 Q279 1637 313.5 1671.5 Q348 1706 399 1706 Q448 1706 483 1671 Q518 1636 518 1587 Q518 1536 483.5 1501 Q449 1466 399 1466 Q348 1466 313.5 1501 Q279 1536 279 1587 ZM707 1587 Q707 1636 742 1671 Q777 1706 827 1706 Q877 1706 912.5 1671 Q948 1636 948 1587 Q948 1536 912.5 1501 Q877 1466 827 1466 Q777 1466 742 1501 Q707 1536 707 1587 Z" /><glyph glyph-name="Igrave" unicode="ì" d="M-102 1776 L102 1776 L389 1481 L236 1481 L-102 1776 ZM145 0 L145 1366 L385 1366 L385 0 L145 0 Z" /><glyph glyph-name="Iacute" unicode="í" d="M143 1481 L430 1776 L635 1776 L297 1481 L143 1481 ZM145 0 L145 1366 L385 1366 L385 0 L145 0 Z" /><glyph glyph-name="Icircumflex" unicode="î" d="M-25 1481 L166 1776 L362 1776 L559 1481 L422 1481 L264 1677 L111 1481 L-25 1481 ZM145 0 L145 1366 L385 1366 L385 0 L145 0 Z" /><glyph glyph-name="Idieresis" unicode="ï" d="M-68 1587 Q-68 1637 -33 1671.5 Q2 1706 53 1706 Q102 1706 137 1671 Q172 1636 172 1587 Q172 1536 137.5 1501 Q103 1466 53 1466 Q2 1466 -33 1501 Q-68 1536 -68 1587 ZM145 0 L145 1366 L385 1366 L385 0 L145 0 ZM360 1587 Q360 1636 395.5 1671 Q431 1706 481 1706 Q531 1706 566.5 1671 Q602 1636 602 1587 Q602 1536 566.5 1501 Q531 1466 481 1466 Q431 1466 395.5 1501 Q360 1536 360 1587 Z" /><glyph glyph-name="Eth" unicode="ð" d="M18 584 L18 760 L199 760 L199 1366 L707 1366 Q917 1366 1080 1279 Q1243 1192 1332 1036.5 Q1421 881 1421 682 Q1421 380 1223 190 Q1025 0 707 0 L199 0 L199 584 L18 584 ZM438 211 L707 211 Q851 211 959 275.5 Q1067 340 1121.5 446 Q1176 552 1176 682 Q1176 888 1052 1021.5 Q928 1155 707 1155 L438 1155 L438 760 L762 760 L762 584 L438 584 L438 211 Z" /><glyph glyph-name="Ntilde" unicode="ñ" d="M145 0 L145 1366 L391 1366 L1090 418 L1090 1366 L1329 1366 L1329 0 L1098 0 L385 975 L385 0 L145 0 ZM406 1489 Q406 1617 460.5 1690 Q515 1763 616 1763 Q655 1763 686.5 1746.5 Q718 1730 738.5 1707 Q759 1684 777 1660.5 Q795 1637 816 1620.5 Q837 1604 860 1604 Q897 1604 920.5 1641 Q944 1678 944 1751 L1063 1751 Q1063 1623 1008 1550 Q953 1477 852 1477 Q812 1477 780.5 1493.5 Q749 1510 728.5 1533 Q708 1556 690.5 1579.5 Q673 1603 652 1619.5 Q631 1636 608 1636 Q570 1636 546 1599 Q522 1562 522 1489 L406 1489 Z" /><glyph glyph-name="Ograve" unicode="ò" d="M172.5 318.5 Q84 480 84 682 Q84 884 172.5 1045.5 Q261 1207 420.5 1298 Q580 1389 782 1389 Q933 1389 1063.5 1335.5 Q1194 1282 1285.5 1188.5 Q1377 1095 1429 964 Q1481 833 1481 682 Q1481 531 1429 400 Q1377 269 1285.5 175.5 Q1194 82 1063.5 28.5 Q933 -25 782 -25 Q580 -25 420.5 66 Q261 157 172.5 318.5 ZM330 682 Q330 468 454 328 Q578 188 782 188 Q985 188 1110 328 Q1235 468 1235 682 Q1235 897 1110 1036.5 Q985 1176 782 1176 Q578 1176 454 1037 Q330 898 330 682 ZM418 1776 L623 1776 L909 1481 L756 1481 L418 1776 Z" /><glyph glyph-name="Oacute" unicode="ó" d="M172.5 318.5 Q84 480 84 682 Q84 884 172.5 1045.5 Q261 1207 420.5 1298 Q580 1389 782 1389 Q933 1389 1063.5 1335.5 Q1194 1282 1285.5 1188.5 Q1377 1095 1429 964 Q1481 833 1481 682 Q1481 531 1429 400 Q1377 269 1285.5 175.5 Q1194 82 1063.5 28.5 Q933 -25 782 -25 Q580 -25 420.5 66 Q261 157 172.5 318.5 ZM330 682 Q330 468 454 328 Q578 188 782 188 Q985 188 1110 328 Q1235 468 1235 682 Q1235 897 1110 1036.5 Q985 1176 782 1176 Q578 1176 454 1037 Q330 898 330 682 ZM659 1481 L946 1776 L1151 1776 L813 1481 L659 1481 Z" /><glyph glyph-name="Ocircumflex" unicode="ô" d="M172.5 318.5 Q84 480 84 682 Q84 884 172.5 1045.5 Q261 1207 420.5 1298 Q580 1389 782 1389 Q933 1389 1063.5 1335.5 Q1194 1282 1285.5 1188.5 Q1377 1095 1429 964 Q1481 833 1481 682 Q1481 531 1429 400 Q1377 269 1285.5 175.5 Q1194 82 1063.5 28.5 Q933 -25 782 -25 Q580 -25 420.5 66 Q261 157 172.5 318.5 ZM330 682 Q330 468 454 328 Q578 188 782 188 Q985 188 1110 328 Q1235 468 1235 682 Q1235 897 1110 1036.5 Q985 1176 782 1176 Q578 1176 454 1037 Q330 898 330 682 ZM496 1481 L686 1776 L883 1776 L1079 1481 L942 1481 L784 1677 L631 1481 L496 1481 Z" /><glyph glyph-name="Otilde" unicode="õ" d="M172.5 318.5 Q84 480 84 682 Q84 884 172.5 1045.5 Q261 1207 420.5 1298 Q580 1389 782 1389 Q933 1389 1063.5 1335.5 Q1194 1282 1285.5 1188.5 Q1377 1095 1429 964 Q1481 833 1481 682 Q1481 531 1429 400 Q1377 269 1285.5 175.5 Q1194 82 1063.5 28.5 Q933 -25 782 -25 Q580 -25 420.5 66 Q261 157 172.5 318.5 ZM330 682 Q330 468 454 328 Q578 188 782 188 Q985 188 1110 328 Q1235 468 1235 682 Q1235 897 1110 1036.5 Q985 1176 782 1176 Q578 1176 454 1037 Q330 898 330 682 ZM455 1489 Q455 1617 510 1690 Q565 1763 666 1763 Q705 1763 736.5 1746.5 Q768 1730 788.5 1707 Q809 1684 826.5 1660.5 Q844 1637 865 1620.5 Q886 1604 909 1604 Q946 1604 969.5 1641 Q993 1678 993 1751 L1112 1751 Q1112 1623 1057 1550 Q1002 1477 901 1477 Q861 1477 829.5 1493.5 Q798 1510 777.5 1533 Q757 1556 739.5 1579.5 Q722 1603 701 1619.5 Q680 1636 657 1636 Q619 1636 595 1599 Q571 1562 571 1489 L455 1489 Z" /><glyph glyph-name="Odieresis" unicode="ö" d="M172.5 318.5 Q84 480 84 682 Q84 884 172.5 1045.5 Q261 1207 420.5 1298 Q580 1389 782 1389 Q933 1389 1063.5 1335.5 Q1194 1282 1285.5 1188.5 Q1377 1095 1429 964 Q1481 833 1481 682 Q1481 531 1429 400 Q1377 269 1285.5 175.5 Q1194 82 1063.5 28.5 Q933 -25 782 -25 Q580 -25 420.5 66 Q261 157 172.5 318.5 ZM330 682 Q330 468 454 328 Q578 188 782 188 Q985 188 1110 328 Q1235 468 1235 682 Q1235 897 1110 1036.5 Q985 1176 782 1176 Q578 1176 454 1037 Q330 898 330 682 ZM449 1587 Q449 1637 483.5 1671.5 Q518 1706 569 1706 Q618 1706 653 1671 Q688 1636 688 1587 Q688 1536 653.5 1501 Q619 1466 569 1466 Q518 1466 483.5 1501 Q449 1536 449 1587 ZM877 1587 Q877 1636 912 1671 Q947 1706 997 1706 Q1047 1706 1082.5 1671 Q1118 1636 1118 1587 Q1118 1536 1082.5 1501 Q1047 1466 997 1466 Q947 1466 912 1501 Q877 1536 877 1587 Z" /><glyph glyph-name="multiply" unicode="×" d="M121 387 L416 684 L121 979 L219 1077 L514 780 L809 1077 L907 979 L612 684 L907 387 L809 291 L514 586 L219 291 L121 387 Z" /><glyph glyph-name="Oslash" unicode="ø" d="M84 682 Q84 884 172.5 1045.5 Q261 1207 420.5 1298 Q580 1389 782 1389 Q972 1389 1130 1305 L1176 1366 L1354 1366 L1249 1221 Q1358 1124 1419.5 984.5 Q1481 845 1481 682 Q1481 531 1429 400 Q1377 269 1285.5 175.5 Q1194 82 1063.5 28.5 Q933 -25 782 -25 Q578 -25 416 70 L365 0 L186 0 L299 156 Q196 253 140 388 Q84 523 84 682 ZM330 682 Q330 479 436 346 L999 1122 Q902 1176 782 1176 Q578 1176 454 1037 Q330 898 330 682 ZM547 250 Q652 188 782 188 Q985 188 1110 328 Q1235 468 1235 682 Q1235 895 1112 1034 L547 250 Z" /><glyph glyph-name="Ugrave" unicode="ù" d="M145 539 L145 1366 L387 1366 L387 547 Q387 381 477.5 284.5 Q568 188 737 188 Q904 188 994.5 284.5 Q1085 381 1085 547 L1085 1366 L1327 1366 L1327 541 Q1327 279 1176.5 127 Q1026 -25 737 -25 Q447 -25 296 127 Q145 279 145 539 ZM371 1776 L575 1776 L862 1481 L709 1481 L371 1776 Z" /><glyph glyph-name="Uacute" unicode="ú" d="M145 539 L145 1366 L387 1366 L387 547 Q387 381 477.5 284.5 Q568 188 737 188 Q904 188 994.5 284.5 Q1085 381 1085 547 L1085 1366 L1327 1366 L1327 541 Q1327 279 1176.5 127 Q1026 -25 737 -25 Q447 -25 296 127 Q145 279 145 539 ZM612 1481 L899 1776 L1104 1776 L766 1481 L612 1481 Z" /><glyph glyph-name="Ucircumflex" unicode="û" d="M145 539 L145 1366 L387 1366 L387 547 Q387 381 477.5 284.5 Q568 188 737 188 Q904 188 994.5 284.5 Q1085 381 1085 547 L1085 1366 L1327 1366 L1327 541 Q1327 279 1176.5 127 Q1026 -25 737 -25 Q447 -25 296 127 Q145 279 145 539 ZM449 1481 L639 1776 L836 1776 L1032 1481 L895 1481 L737 1677 L584 1481 L449 1481 Z" /><glyph glyph-name="Udieresis" unicode="ü" d="M145 539 L145 1366 L387 1366 L387 547 Q387 381 477.5 284.5 Q568 188 737 188 Q904 188 994.5 284.5 Q1085 381 1085 547 L1085 1366 L1327 1366 L1327 541 Q1327 279 1176.5 127 Q1026 -25 737 -25 Q447 -25 296 127 Q145 279 145 539 ZM406 1587 Q406 1637 440.5 1671.5 Q475 1706 526 1706 Q576 1706 610.5 1671 Q645 1636 645 1587 Q645 1536 610.5 1501 Q576 1466 526 1466 Q475 1466 440.5 1501 Q406 1536 406 1587 ZM834 1587 Q834 1636 869 1671 Q904 1706 954 1706 Q1004 1706 1039.5 1671 Q1075 1636 1075 1587 Q1075 1536 1039.5 1501 Q1004 1466 954 1466 Q904 1466 869 1501 Q834 1536 834 1587 Z" /><glyph glyph-name="Yacute" unicode="ý" d="M2 1366 L276 1366 L653 780 L1026 1366 L1300 1366 L772 567 L772 0 L532 0 L532 567 L2 1366 ZM526 1481 L813 1776 L1018 1776 L680 1481 L526 1481 Z" /><glyph glyph-name="Thorn" unicode="þ" d="M145 0 L145 1366 L385 1366 L385 1135 L745 1135 Q884 1135 987 1075.5 Q1090 1016 1141 919.5 Q1192 823 1192 705 Q1192 588 1140.5 493 Q1089 398 986 339.5 Q883 281 745 281 L385 281 L385 0 L145 0 ZM385 492 L713 492 Q816 492 881 551 Q946 610 946 707 Q946 803 880.5 863.5 Q815 924 713 924 L385 924 L385 492 Z" /><glyph glyph-name="germandbls" unicode="ß" d="M139 0 L139 993 Q139 1160 258 1273 Q377 1386 575 1386 Q679 1386 768 1353 Q857 1320 913 1255 Q969 1190 969 1106 Q969 1043 939.5 993 Q910 943 868 912 Q826 881 784.5 853 Q743 825 713.5 792 Q684 759 684 721 Q684 686 714.5 663 Q745 640 794.5 627 Q844 614 903 601.5 Q962 589 1021.5 567.5 Q1081 546 1130.5 514.5 Q1180 483 1210.5 425 Q1241 367 1241 287 Q1241 152 1134 63.5 Q1027 -25 842 -25 Q706 -25 618 16 Q530 57 449 135 L545 285 Q590 226 670.5 186.5 Q751 147 842 147 Q934 147 984 186 Q1034 225 1034 281 Q1034 320 1003.5 346 Q973 372 923.5 387.5 Q874 403 814.5 417 Q755 431 696 451.5 Q637 472 587.5 502 Q538 532 507.5 586 Q477 640 477 715 Q477 775 505 824.5 Q533 874 573.5 905.5 Q614 937 654 964 Q694 991 722 1019.5 Q750 1048 750 1077 Q750 1132 695.5 1164 Q641 1196 571 1196 Q478 1196 416 1141 Q354 1086 354 993 L354 0 L139 0 Z" /><glyph glyph-name="agrave" unicode="à" d="M80 303 Q80 385 110.5 448.5 Q141 512 191.5 549.5 Q242 587 301.5 606 Q361 625 424 625 Q634 625 743 498 L743 645 Q743 730 679.5 779.5 Q616 829 512 829 Q346 829 219 705 L131 854 Q300 1014 547 1014 Q633 1014 704.5 994.5 Q776 975 834 934.5 Q892 894 925 822.5 Q958 751 958 655 L958 0 L743 0 L743 106 Q687 43 604.5 9 Q522 -25 424 -25 Q362 -25 302 -4 Q242 17 191.5 56.5 Q141 96 110.5 160 Q80 224 80 303 ZM180 1434 L385 1434 L672 1139 L518 1139 L180 1434 ZM297 299 Q297 220 356.5 171.5 Q416 123 508 123 Q581 123 644 149.5 Q707 176 743 225 L743 375 Q707 424 644 450.5 Q581 477 508 477 Q416 477 356.5 428.5 Q297 380 297 299 Z" /><glyph glyph-name="aacute" unicode="á" d="M80 303 Q80 385 110.5 448.5 Q141 512 191.5 549.5 Q242 587 301.5 606 Q361 625 424 625 Q634 625 743 498 L743 645 Q743 730 679.5 779.5 Q616 829 512 829 Q346 829 219 705 L131 854 Q300 1014 547 1014 Q633 1014 704.5 994.5 Q776 975 834 934.5 Q892 894 925 822.5 Q958 751 958 655 L958 0 L743 0 L743 106 Q687 43 604.5 9 Q522 -25 424 -25 Q362 -25 302 -4 Q242 17 191.5 56.5 Q141 96 110.5 160 Q80 224 80 303 ZM297 299 Q297 220 356.5 171.5 Q416 123 508 123 Q581 123 644 149.5 Q707 176 743 225 L743 375 Q707 424 644 450.5 Q581 477 508 477 Q416 477 356.5 428.5 Q297 380 297 299 ZM422 1139 L709 1434 L913 1434 L575 1139 L422 1139 Z" /><glyph glyph-name="acircumflex" unicode="â" d="M80 303 Q80 385 110.5 448.5 Q141 512 191.5 549.5 Q242 587 301.5 606 Q361 625 424 625 Q634 625 743 498 L743 645 Q743 730 679.5 779.5 Q616 829 512 829 Q346 829 219 705 L131 854 Q300 1014 547 1014 Q633 1014 704.5 994.5 Q776 975 834 934.5 Q892 894 925 822.5 Q958 751 958 655 L958 0 L743 0 L743 106 Q687 43 604.5 9 Q522 -25 424 -25 Q362 -25 302 -4 Q242 17 191.5 56.5 Q141 96 110.5 160 Q80 224 80 303 ZM256 1139 L446 1434 L643 1434 L840 1139 L702 1139 L545 1335 L391 1139 L256 1139 ZM297 299 Q297 220 356.5 171.5 Q416 123 508 123 Q581 123 644 149.5 Q707 176 743 225 L743 375 Q707 424 644 450.5 Q581 477 508 477 Q416 477 356.5 428.5 Q297 380 297 299 Z" /><glyph glyph-name="atilde" unicode="ã" d="M80 303 Q80 385 110.5 448.5 Q141 512 191.5 549.5 Q242 587 301.5 606 Q361 625 424 625 Q634 625 743 498 L743 645 Q743 730 679.5 779.5 Q616 829 512 829 Q346 829 219 705 L131 854 Q300 1014 547 1014 Q633 1014 704.5 994.5 Q776 975 834 934.5 Q892 894 925 822.5 Q958 751 958 655 L958 0 L743 0 L743 106 Q687 43 604.5 9 Q522 -25 424 -25 Q362 -25 302 -4 Q242 17 191.5 56.5 Q141 96 110.5 160 Q80 224 80 303 ZM219 1147 Q219 1275 274 1348 Q329 1421 430 1421 Q469 1421 500.5 1404.5 Q532 1388 552.5 1365 Q573 1342 591 1318.5 Q609 1295 630 1278.5 Q651 1262 674 1262 Q711 1262 734.5 1299 Q758 1336 758 1409 L877 1409 Q877 1281 822 1208 Q767 1135 666 1135 Q626 1135 594.5 1151.5 Q563 1168 542.5 1191 Q522 1214 504.5 1237.5 Q487 1261 466 1277.5 Q445 1294 422 1294 Q384 1294 360 1257 Q336 1220 336 1147 L219 1147 ZM297 299 Q297 220 356.5 171.5 Q416 123 508 123 Q581 123 644 149.5 Q707 176 743 225 L743 375 Q707 424 644 450.5 Q581 477 508 477 Q416 477 356.5 428.5 Q297 380 297 299 Z" /><glyph glyph-name="adieresis" unicode="ä" d="M80 303 Q80 385 110.5 448.5 Q141 512 191.5 549.5 Q242 587 301.5 606 Q361 625 424 625 Q634 625 743 498 L743 645 Q743 730 679.5 779.5 Q616 829 512 829 Q346 829 219 705 L131 854 Q300 1014 547 1014 Q633 1014 704.5 994.5 Q776 975 834 934.5 Q892 894 925 822.5 Q958 751 958 655 L958 0 L743 0 L743 106 Q687 43 604.5 9 Q522 -25 424 -25 Q362 -25 302 -4 Q242 17 191.5 56.5 Q141 96 110.5 160 Q80 224 80 303 ZM213 1245 Q213 1295 248 1329.5 Q283 1364 334 1364 Q384 1364 418.5 1329 Q453 1294 453 1245 Q453 1194 418.5 1159 Q384 1124 334 1124 Q283 1124 248 1159 Q213 1194 213 1245 ZM297 299 Q297 220 356.5 171.5 Q416 123 508 123 Q581 123 644 149.5 Q707 176 743 225 L743 375 Q707 424 644 450.5 Q581 477 508 477 Q416 477 356.5 428.5 Q297 380 297 299 ZM641 1245 Q641 1294 676.5 1329 Q712 1364 762 1364 Q812 1364 847.5 1329 Q883 1294 883 1245 Q883 1194 847.5 1159 Q812 1124 762 1124 Q712 1124 676.5 1159 Q641 1194 641 1245 Z" /><glyph glyph-name="aring" unicode="å" d="M80 303 Q80 385 110.5 448.5 Q141 512 191.5 549.5 Q242 587 301.5 606 Q361 625 424 625 Q634 625 743 498 L743 645 Q743 730 679.5 779.5 Q616 829 512 829 Q346 829 219 705 L131 854 Q300 1014 547 1014 Q633 1014 704.5 994.5 Q776 975 834 934.5 Q892 894 925 822.5 Q958 751 958 655 L958 0 L743 0 L743 106 Q687 43 604.5 9 Q522 -25 424 -25 Q362 -25 302 -4 Q242 17 191.5 56.5 Q141 96 110.5 160 Q80 224 80 303 ZM297 299 Q297 220 356.5 171.5 Q416 123 508 123 Q581 123 644 149.5 Q707 176 743 225 L743 375 Q707 424 644 450.5 Q581 477 508 477 Q416 477 356.5 428.5 Q297 380 297 299 ZM401.5 1159.5 Q340 1221 340 1307 Q340 1393 401.5 1455.5 Q463 1518 549 1518 Q635 1518 695.5 1456 Q756 1394 756 1307 Q756 1221 695.5 1159.5 Q635 1098 549 1098 Q463 1098 401.5 1159.5 ZM442 1307 Q442 1264 474 1232 Q506 1200 549 1200 Q593 1200 623 1232 Q653 1264 653 1307 Q653 1351 623 1382 Q593 1413 549 1413 Q506 1413 474 1382 Q442 1351 442 1307 Z" /><glyph glyph-name="ae" unicode="æ" d="M80 301 Q80 455 183.5 540 Q287 625 442 625 Q548 625 639.5 593.5 Q731 562 791 502 L791 647 Q791 731 721 780 Q651 829 539 829 Q355 829 219 705 L131 854 Q303 1014 557 1014 Q692 1014 784 964.5 Q876 915 913 823 Q953 881 997 920 Q1041 959 1113.5 986.5 Q1186 1014 1276 1014 Q1480 1014 1602 863 Q1724 712 1724 475 L1724 424 L1006 424 Q1019 307 1095 231.5 Q1171 156 1296 156 Q1366 156 1438 184.5 Q1510 213 1556 264 L1655 119 Q1584 51 1483.5 13 Q1383 -25 1286 -25 Q1016 -25 897 176 Q837 86 725 30.5 Q613 -25 481 -25 Q402 -25 331 -4.5 Q260 16 203.5 55.5 Q147 95 113.5 158.5 Q80 222 80 301 ZM361 434.5 Q297 392 297 315 Q297 238 360.5 197 Q424 156 528 156 Q632 156 711.5 220.5 Q791 285 791 358 L791 373 Q749 422 678 449.5 Q607 477 528 477 Q425 477 361 434.5 ZM1004 575 L1516 575 Q1514 621 1498.5 665.5 Q1483 710 1453.5 750 Q1424 790 1374 814 Q1324 838 1260 838 Q1200 838 1151 814 Q1102 790 1071.5 751.5 Q1041 713 1024 667.5 Q1007 622 1004 575 Z" /><glyph glyph-name="ccedilla" unicode="ç" d="M78 496 Q78 721 221.5 867.5 Q365 1014 590 1014 Q838 1014 969 838 L827 707 Q745 823 600 823 Q466 823 383.5 732 Q301 641 301 496 Q301 350 383.5 258 Q466 166 600 166 Q742 166 827 283 L969 152 Q852 -7 637 -23 L604 -104 Q635 -82 678 -82 Q737 -82 776 -121.5 Q815 -161 815 -223 Q815 -299 751 -346 Q687 -393 594 -393 Q527 -393 468.5 -375 Q410 -357 377 -330 L422 -236 Q495 -295 588 -295 Q635 -295 668.5 -275.5 Q702 -256 702 -221 Q702 -160 635 -160 Q592 -160 565 -190 L481 -143 L526 -20 Q326 0 202 143 Q78 286 78 496 Z" /><glyph glyph-name="egrave" unicode="è" d="M78 496 Q78 638 141.5 756.5 Q205 875 321 944.5 Q437 1014 580 1014 Q800 1014 933.5 862.5 Q1067 711 1067 475 L1067 424 L303 424 Q316 307 399.5 229.5 Q483 152 618 152 Q693 152 770.5 180.5 Q848 209 899 260 L997 119 Q924 49 820 12 Q716 -25 596 -25 Q371 -25 224.5 119.5 Q78 264 78 496 ZM215 1434 L420 1434 L707 1139 L553 1139 L215 1434 ZM301 575 L858 575 Q856 621 839.5 665.5 Q823 710 791 750 Q759 790 704.5 814 Q650 838 580 838 Q514 838 460.5 814.5 Q407 791 374.5 751.5 Q342 712 323.5 667.5 Q305 623 301 575 Z" /><glyph glyph-name="eacute" unicode="é" d="M78 496 Q78 638 141.5 756.5 Q205 875 321 944.5 Q437 1014 580 1014 Q800 1014 933.5 862.5 Q1067 711 1067 475 L1067 424 L303 424 Q316 307 399.5 229.5 Q483 152 618 152 Q693 152 770.5 180.5 Q848 209 899 260 L997 119 Q924 49 820 12 Q716 -25 596 -25 Q371 -25 224.5 119.5 Q78 264 78 496 ZM301 575 L858 575 Q856 621 839.5 665.5 Q823 710 791 750 Q759 790 704.5 814 Q650 838 580 838 Q514 838 460.5 814.5 Q407 791 374.5 751.5 Q342 712 323.5 667.5 Q305 623 301 575 ZM457 1139 L743 1434 L948 1434 L610 1139 L457 1139 Z" /><glyph glyph-name="ecircumflex" unicode="ê" d="M78 496 Q78 638 141.5 756.5 Q205 875 321 944.5 Q437 1014 580 1014 Q800 1014 933.5 862.5 Q1067 711 1067 475 L1067 424 L303 424 Q316 307 399.5 229.5 Q483 152 618 152 Q693 152 770.5 180.5 Q848 209 899 260 L997 119 Q924 49 820 12 Q716 -25 596 -25 Q371 -25 224.5 119.5 Q78 264 78 496 ZM291 1139 L481 1434 L678 1434 L874 1139 L737 1139 L580 1335 L426 1139 L291 1139 ZM301 575 L858 575 Q856 621 839.5 665.5 Q823 710 791 750 Q759 790 704.5 814 Q650 838 580 838 Q514 838 460.5 814.5 Q407 791 374.5 751.5 Q342 712 323.5 667.5 Q305 623 301 575 Z" /><glyph glyph-name="edieresis" unicode="ë" d="M78 496 Q78 638 141.5 756.5 Q205 875 321 944.5 Q437 1014 580 1014 Q800 1014 933.5 862.5 Q1067 711 1067 475 L1067 424 L303 424 Q316 307 399.5 229.5 Q483 152 618 152 Q693 152 770.5 180.5 Q848 209 899 260 L997 119 Q924 49 820 12 Q716 -25 596 -25 Q371 -25 224.5 119.5 Q78 264 78 496 ZM248 1245 Q248 1295 283 1329.5 Q318 1364 369 1364 Q418 1364 452.5 1329.5 Q487 1295 487 1245 Q487 1194 453 1159 Q419 1124 369 1124 Q318 1124 283 1159 Q248 1194 248 1245 ZM301 575 L858 575 Q856 621 839.5 665.5 Q823 710 791 750 Q759 790 704.5 814 Q650 838 580 838 Q514 838 460.5 814.5 Q407 791 374.5 751.5 Q342 712 323.5 667.5 Q305 623 301 575 ZM676 1245 Q676 1294 711.5 1329 Q747 1364 797 1364 Q847 1364 882.5 1329 Q918 1294 918 1245 Q918 1194 882.5 1159 Q847 1124 797 1124 Q747 1124 711.5 1159 Q676 1194 676 1245 Z" /><glyph glyph-name="igrave" unicode="ì" d="M-121 1434 L84 1434 L371 1139 L217 1139 L-121 1434 ZM139 0 L139 989 L354 989 L354 0 L139 0 Z" /><glyph glyph-name="iacute" unicode="í" d="M123 1139 L410 1434 L614 1434 L276 1139 L123 1139 ZM139 0 L139 989 L354 989 L354 0 L139 0 Z" /><glyph glyph-name="icircumflex" unicode="î" d="M-45 1139 L145 1434 L342 1434 L539 1139 L401 1139 L244 1335 L90 1139 L-45 1139 ZM139 0 L139 989 L354 989 L354 0 L139 0 Z" /><glyph glyph-name="idieresis" unicode="ï" d="M-88 1245 Q-88 1295 -53 1329.5 Q-18 1364 33 1364 Q82 1364 117 1329 Q152 1294 152 1245 Q152 1194 117.5 1159 Q83 1124 33 1124 Q-18 1124 -53 1159 Q-88 1194 -88 1245 ZM139 0 L139 989 L354 989 L354 0 L139 0 ZM340 1245 Q340 1294 375.5 1329 Q411 1364 461 1364 Q511 1364 546.5 1329 Q582 1294 582 1245 Q582 1194 546.5 1159 Q511 1124 461 1124 Q411 1124 375.5 1159 Q340 1194 340 1245 Z" /><glyph glyph-name="eth" unicode="ð" d="M78 467 Q78 680 204 819 Q330 958 522 958 Q725 958 848 772 Q767 938 524 1116 L227 985 L182 1092 L412 1192 Q387 1209 339 1238 Q291 1267 274 1278 L391 1452 Q515 1378 633 1290 L848 1384 L893 1280 L733 1208 Q1096 888 1096 512 Q1096 273 958 124 Q820 -25 586 -25 Q359 -25 218.5 114 Q78 253 78 467 ZM377.5 681 Q301 594 301 467 Q301 340 377.5 253 Q454 166 586 166 Q719 166 795.5 253 Q872 340 872 467 Q872 594 795.5 681 Q719 768 586 768 Q454 768 377.5 681 Z" /><glyph glyph-name="ntilde" unicode="ñ" d="M139 0 L139 989 L354 989 L354 854 Q410 920 502 967 Q594 1014 702 1014 Q860 1014 941 932 Q1022 850 1022 696 L1022 0 L807 0 L807 618 Q807 728 755.5 775.5 Q704 823 608 823 Q530 823 462 784.5 Q394 746 354 690 L354 0 L139 0 ZM254 1147 Q254 1275 309 1348 Q364 1421 465 1421 Q504 1421 535.5 1404.5 Q567 1388 587.5 1365 Q608 1342 626 1318.5 Q644 1295 665 1278.5 Q686 1262 709 1262 Q746 1262 769.5 1299 Q793 1336 793 1409 L911 1409 Q911 1281 856 1208 Q801 1135 700 1135 Q660 1135 628.5 1151.5 Q597 1168 577 1191 Q557 1214 539.5 1237.5 Q522 1261 501 1277.5 Q480 1294 457 1294 Q419 1294 395 1257 Q371 1220 371 1147 L254 1147 Z" /><glyph glyph-name="ograve" unicode="ò" d="M78 496 Q78 602 114 696.5 Q150 791 214.5 861.5 Q279 932 375 973 Q471 1014 586 1014 Q740 1014 857.5 943 Q975 872 1035.5 755.5 Q1096 639 1096 496 Q1096 352 1035.5 234.5 Q975 117 857.5 46 Q740 -25 586 -25 Q471 -25 375 16.5 Q279 58 214.5 128.5 Q150 199 114 294 Q78 389 78 496 ZM221 1434 L426 1434 L713 1139 L559 1139 L221 1434 ZM301 496 Q301 358 378 262 Q455 166 586 166 Q719 166 795.5 261.5 Q872 357 872 496 Q872 633 795.5 728 Q719 823 586 823 Q455 823 378 728 Q301 633 301 496 Z" /><glyph glyph-name="oacute" unicode="ó" d="M78 496 Q78 602 114 696.5 Q150 791 214.5 861.5 Q279 932 375 973 Q471 1014 586 1014 Q740 1014 857.5 943 Q975 872 1035.5 755.5 Q1096 639 1096 496 Q1096 352 1035.5 234.5 Q975 117 857.5 46 Q740 -25 586 -25 Q471 -25 375 16.5 Q279 58 214.5 128.5 Q150 199 114 294 Q78 389 78 496 ZM301 496 Q301 358 378 262 Q455 166 586 166 Q719 166 795.5 261.5 Q872 357 872 496 Q872 633 795.5 728 Q719 823 586 823 Q455 823 378 728 Q301 633 301 496 ZM463 1139 L750 1434 L954 1434 L616 1139 L463 1139 Z" /><glyph glyph-name="ocircumflex" unicode="ô" d="M78 496 Q78 602 114 696.5 Q150 791 214.5 861.5 Q279 932 375 973 Q471 1014 586 1014 Q740 1014 857.5 943 Q975 872 1035.5 755.5 Q1096 639 1096 496 Q1096 352 1035.5 234.5 Q975 117 857.5 46 Q740 -25 586 -25 Q471 -25 375 16.5 Q279 58 214.5 128.5 Q150 199 114 294 Q78 389 78 496 ZM295 1139 L485 1434 L682 1434 L879 1139 L741 1139 L584 1335 L430 1139 L295 1139 ZM301 496 Q301 358 378 262 Q455 166 586 166 Q719 166 795.5 261.5 Q872 357 872 496 Q872 633 795.5 728 Q719 823 586 823 Q455 823 378 728 Q301 633 301 496 Z" /><glyph glyph-name="otilde" unicode="õ" d="M78 496 Q78 602 114 696.5 Q150 791 214.5 861.5 Q279 932 375 973 Q471 1014 586 1014 Q740 1014 857.5 943 Q975 872 1035.5 755.5 Q1096 639 1096 496 Q1096 352 1035.5 234.5 Q975 117 857.5 46 Q740 -25 586 -25 Q471 -25 375 16.5 Q279 58 214.5 128.5 Q150 199 114 294 Q78 389 78 496 ZM258 1147 Q258 1275 313 1348 Q368 1421 469 1421 Q508 1421 539.5 1404.5 Q571 1388 591.5 1365 Q612 1342 630 1318.5 Q648 1295 669 1278.5 Q690 1262 713 1262 Q750 1262 773.5 1299 Q797 1336 797 1409 L915 1409 Q915 1281 860.5 1208 Q806 1135 705 1135 Q665 1135 633.5 1151.5 Q602 1168 581.5 1191 Q561 1214 543.5 1237.5 Q526 1261 505 1277.5 Q484 1294 461 1294 Q423 1294 399 1257 Q375 1220 375 1147 L258 1147 ZM301 496 Q301 358 378 262 Q455 166 586 166 Q719 166 795.5 261.5 Q872 357 872 496 Q872 633 795.5 728 Q719 823 586 823 Q455 823 378 728 Q301 633 301 496 Z" /><glyph glyph-name="odieresis" unicode="ö" d="M78 496 Q78 602 114 696.5 Q150 791 214.5 861.5 Q279 932 375 973 Q471 1014 586 1014 Q740 1014 857.5 943 Q975 872 1035.5 755.5 Q1096 639 1096 496 Q1096 352 1035.5 234.5 Q975 117 857.5 46 Q740 -25 586 -25 Q471 -25 375 16.5 Q279 58 214.5 128.5 Q150 199 114 294 Q78 389 78 496 ZM252 1245 Q252 1295 287 1329.5 Q322 1364 373 1364 Q422 1364 457 1329 Q492 1294 492 1245 Q492 1194 457.5 1159 Q423 1124 373 1124 Q322 1124 287 1159 Q252 1194 252 1245 ZM301 496 Q301 358 378 262 Q455 166 586 166 Q719 166 795.5 261.5 Q872 357 872 496 Q872 633 795.5 728 Q719 823 586 823 Q455 823 378 728 Q301 633 301 496 ZM680 1245 Q680 1294 715.5 1329 Q751 1364 801 1364 Q851 1364 886.5 1329 Q922 1294 922 1245 Q922 1194 886.5 1159 Q851 1124 801 1124 Q751 1124 715.5 1159 Q680 1194 680 1245 Z" /><glyph glyph-name="divide" unicode="÷" d="M59 621 L59 760 L987 760 L987 621 L59 621 ZM444 231 Q412 263 412 309 Q412 355 444.5 388.5 Q477 422 522 422 Q568 422 601.5 388.5 Q635 355 635 309 Q635 264 601.5 231.5 Q568 199 522 199 Q476 199 444 231 ZM444.5 985.5 Q412 1019 412 1065 Q412 1111 444 1143.5 Q476 1176 522 1176 Q568 1176 601.5 1143.5 Q635 1111 635 1065 Q635 1019 601.5 985.5 Q568 952 522 952 Q477 952 444.5 985.5 Z" /><glyph glyph-name="oslash" unicode="ø" d="M78 496 Q78 602 114 696.5 Q150 791 214.5 861.5 Q279 932 375 973 Q471 1014 586 1014 Q745 1014 872 934 L918 989 L1059 989 L956 864 Q1096 718 1096 496 Q1096 352 1035.5 234.5 Q975 117 857.5 46 Q740 -25 586 -25 Q415 -25 293 61 L242 0 L102 0 L211 131 Q78 276 78 496 ZM301 496 Q301 383 350 301 L741 776 Q671 823 586 823 Q455 823 378 728 Q301 633 301 496 ZM422 219 Q494 166 586 166 Q719 166 795.5 261.5 Q872 357 872 496 Q872 614 817 696 L422 219 Z" /><glyph glyph-name="ugrave" unicode="ù" d="M139 289 L139 989 L354 989 L354 367 Q354 257 405 211.5 Q456 166 553 166 Q630 166 698 203 Q766 240 807 295 L807 989 L1022 989 L1022 0 L807 0 L807 131 Q747 64 656.5 19.5 Q566 -25 457 -25 Q299 -25 219 55 Q139 135 139 289 ZM213 1434 L418 1434 L705 1139 L551 1139 L213 1434 Z" /><glyph glyph-name="uacute" unicode="ú" d="M139 289 L139 989 L354 989 L354 367 Q354 257 405 211.5 Q456 166 553 166 Q630 166 698 203 Q766 240 807 295 L807 989 L1022 989 L1022 0 L807 0 L807 131 Q747 64 656.5 19.5 Q566 -25 457 -25 Q299 -25 219 55 Q139 135 139 289 ZM455 1139 L741 1434 L946 1434 L608 1139 L455 1139 Z" /><glyph glyph-name="ucircumflex" unicode="û" d="M139 289 L139 989 L354 989 L354 367 Q354 257 405 211.5 Q456 166 553 166 Q630 166 698 203 Q766 240 807 295 L807 989 L1022 989 L1022 0 L807 0 L807 131 Q747 64 656.5 19.5 Q566 -25 457 -25 Q299 -25 219 55 Q139 135 139 289 ZM289 1139 L479 1434 L676 1434 L872 1139 L735 1139 L578 1335 L424 1139 L289 1139 Z" /><glyph glyph-name="udieresis" unicode="ü" d="M139 289 L139 989 L354 989 L354 367 Q354 257 405 211.5 Q456 166 553 166 Q630 166 698 203 Q766 240 807 295 L807 989 L1022 989 L1022 0 L807 0 L807 131 Q747 64 656.5 19.5 Q566 -25 457 -25 Q299 -25 219 55 Q139 135 139 289 ZM244 1245 Q244 1295 279 1329.5 Q314 1364 365 1364 Q414 1364 448.5 1329.5 Q483 1295 483 1245 Q483 1194 449 1159 Q415 1124 365 1124 Q314 1124 279 1159 Q244 1194 244 1245 ZM672 1245 Q672 1294 707.5 1329 Q743 1364 793 1364 Q843 1364 878 1329 Q913 1294 913 1245 Q913 1194 878 1159 Q843 1124 793 1124 Q743 1124 707.5 1159 Q672 1194 672 1245 Z" /><glyph glyph-name="yacute" unicode="ý" d="M-4 989 L225 989 L514 248 L803 989 L1034 989 L557 -178 Q508 -298 424 -348.5 Q340 -399 217 -401 Q150 -401 96 -387 L129 -195 Q166 -211 211 -211 Q264 -211 297.5 -192 Q331 -173 352 -125 L401 -12 L-4 989 ZM389 1139 L676 1434 L881 1434 L543 1139 L389 1139 Z" /><glyph glyph-name="thorn" unicode="þ" d="M139 -377 L139 1366 L354 1366 L354 854 Q410 929 493.5 971.5 Q577 1014 672 1014 Q868 1014 989 875 Q1110 736 1110 496 Q1110 255 988.5 115 Q867 -25 672 -25 Q578 -25 496 16.5 Q414 58 354 137 L354 -377 L139 -377 ZM354 299 Q390 244 462.5 205 Q535 166 608 166 Q734 166 810.5 258 Q887 350 887 496 Q887 640 810.5 731.5 Q734 823 608 823 Q534 823 462 784.5 Q390 746 354 690 L354 299 Z" /><glyph glyph-name="ydieresis" unicode="ÿ" d="M-4 989 L225 989 L514 248 L803 989 L1034 989 L557 -178 Q508 -298 424 -348.5 Q340 -399 217 -401 Q150 -401 96 -387 L129 -195 Q166 -211 211 -211 Q264 -211 297.5 -192 Q331 -173 352 -125 L401 -12 L-4 989 ZM180 1245 Q180 1295 215 1329.5 Q250 1364 301 1364 Q350 1364 385 1329 Q420 1294 420 1245 Q420 1194 385.5 1159 Q351 1124 301 1124 Q250 1124 215 1159 Q180 1194 180 1245 ZM608 1245 Q608 1294 643.5 1329 Q679 1364 729 1364 Q779 1364 814.5 1329 Q850 1294 850 1245 Q850 1194 814.5 1159 Q779 1124 729 1124 Q679 1124 643.5 1159 Q608 1194 608 1245 Z" /><glyph glyph-name="OE" unicode="&#x152;" d="M169.5 318 Q84 479 84 682 Q84 885 169.5 1045.5 Q255 1206 409.5 1296 Q564 1386 760 1386 Q892 1386 1013.5 1329 Q1135 1272 1204 1167 L1204 1366 L2140 1366 L2140 1155 L1444 1155 L1444 801 L2126 801 L2126 590 L1444 590 L1444 211 L2140 211 L2140 0 L1204 0 L1204 197 Q1135 91 1013.5 33 Q892 -25 760 -25 Q564 -25 409.5 66 Q255 157 169.5 318 ZM455.5 1036 Q330 898 330 682 Q330 466 455.5 327 Q581 188 791 188 Q932 188 1041.5 260 Q1151 332 1204 465 L1204 899 Q1151 1033 1042 1103.5 Q933 1174 791 1174 Q581 1174 455.5 1036 Z" /><glyph glyph-name="oe" unicode="&#x153;" d="M78 496 Q78 602 114 696.5 Q150 791 214.5 861.5 Q279 932 375 973 Q471 1014 586 1014 Q839 1014 983 766 Q1007 810 1038 848 Q1069 886 1116.5 926.5 Q1164 967 1230.5 990.5 Q1297 1014 1374 1014 Q1520 1014 1631 944 Q1742 874 1801 752 Q1860 630 1860 475 L1860 424 L1098 424 Q1111 306 1194 229 Q1277 152 1411 152 Q1487 152 1564.5 180.5 Q1642 209 1694 260 L1792 119 Q1718 49 1613.5 12 Q1509 -25 1391 -25 Q1125 -25 981 221 Q841 -25 586 -25 Q471 -25 375 16.5 Q279 58 214.5 128.5 Q150 199 114 294 Q78 389 78 496 ZM301 496 Q301 353 379.5 258.5 Q458 164 586 164 Q716 164 794 258.5 Q872 353 872 496 Q872 638 794.5 730.5 Q717 823 586 823 Q458 823 379.5 730 Q301 637 301 496 ZM1096 575 L1653 575 Q1651 621 1633.5 665.5 Q1616 710 1584 750 Q1552 790 1497 814 Q1442 838 1372 838 Q1307 838 1254 814 Q1201 790 1168.5 751.5 Q1136 713 1117.5 667.5 Q1099 622 1096 575 Z" /><glyph glyph-name="Ydieresis" unicode="&#x178;" d="M2 1366 L276 1366 L653 780 L1026 1366 L1300 1366 L772 567 L772 0 L532 0 L532 567 L2 1366 ZM319 1587 Q319 1637 354 1671.5 Q389 1706 440 1706 Q490 1706 524.5 1671 Q559 1636 559 1587 Q559 1536 524.5 1501 Q490 1466 440 1466 Q389 1466 354 1501 Q319 1536 319 1587 ZM748 1587 Q748 1636 783 1671 Q818 1706 868 1706 Q918 1706 953.5 1671 Q989 1636 989 1587 Q989 1536 953.5 1501 Q918 1466 868 1466 Q818 1466 783 1501 Q748 1536 748 1587 Z" /><glyph glyph-name="circumflex" unicode="&#x2c6;" d="M0 1139 L190 1434 L387 1434 L584 1139 L446 1139 L289 1335 L135 1139 L0 1139 Z" /><glyph glyph-name="tilde" unicode="&#x2dc;" d="M0 1147 Q0 1275 55 1348 Q110 1421 211 1421 Q250 1421 281.5 1404.5 Q313 1388 333.5 1365 Q354 1342 372 1318.5 Q390 1295 411 1278.5 Q432 1262 455 1262 Q492 1262 515.5 1299 Q539 1336 539 1409 L657 1409 Q657 1281 602 1208 Q547 1135 446 1135 Q406 1135 374.5 1151.5 Q343 1168 323 1191 Q303 1214 285.5 1237.5 Q268 1261 247 1277.5 Q226 1294 203 1294 Q165 1294 141 1257 Q117 1220 117 1147 L0 1147 Z" /><glyph glyph-name="uni2000" unicode="&#x2000;" d="" /><glyph glyph-name="uni2001" unicode="&#x2001;" d="" /><glyph glyph-name="uni2002" unicode="&#x2002;" d="" /><glyph glyph-name="uni2003" unicode="&#x2003;" d="" /><glyph glyph-name="uni2004" unicode="&#x2004;" d="" /><glyph glyph-name="uni2005" unicode="&#x2005;" d="" /><glyph glyph-name="uni2006" unicode="&#x2006;" d="" /><glyph glyph-name="uni2007" unicode="&#x2007;" d="" /><glyph glyph-name="uni2008" unicode="&#x2008;" d="" /><glyph glyph-name="uni2009" unicode="&#x2009;" d="" /><glyph glyph-name="uni200A" unicode="&#x200a;" d="" /><glyph glyph-name="uni2010" unicode="&#x2010;" d="M61 403 L61 588 L553 588 L553 403 L61 403 Z" /><glyph glyph-name="uni2011" unicode="&#x2011;" d="M61 403 L61 588 L553 588 L553 403 L61 403 Z" /><glyph glyph-name="figuredash" unicode="&#x2012;" d="M61 403 L61 588 L553 588 L553 403 L61 403 Z" /><glyph glyph-name="endash" unicode="&#x2013;" d="M61 403 L61 588 L1153 588 L1153 403 L61 403 Z" /><glyph glyph-name="emdash" unicode="&#x2014;" d="M61 403 L61 588 L1645 588 L1645 403 L61 403 Z" /><glyph glyph-name="quoteleft" unicode="&#x2018;" d="M86 1038 Q86 1141 138.5 1232.5 Q191 1324 279 1386 L375 1309 Q324 1279 280.5 1223 Q237 1167 227 1116 Q239 1120 262 1120 Q315 1120 350 1084 Q385 1048 385 991 Q385 934 344 893 Q303 852 246 852 Q180 852 133 902 Q86 952 86 1038 Z" /><glyph glyph-name="quoteright" unicode="&#x2019;" d="M106 1245 Q106 1303 147.5 1344.5 Q189 1386 246 1386 Q312 1386 359 1336 Q406 1286 406 1200 Q406 1097 353 1004.5 Q300 912 213 850 L117 930 Q168 960 211 1015.5 Q254 1071 264 1122 Q246 1116 229 1116 Q176 1116 141 1152 Q106 1188 106 1245 Z" /><glyph glyph-name="quotesinglbase" unicode="&#x201a;" d="M106 123 Q106 181 147.5 222.5 Q189 264 246 264 Q312 264 359 214 Q406 164 406 78 Q406 -25 353 -117.5 Q300 -210 213 -272 L117 -193 Q167 -163 210.5 -107.5 Q254 -52 264 0 Q246 -6 229 -6 Q176 -6 141 30 Q106 66 106 123 Z" /><glyph glyph-name="quotedblleft" unicode="&#x201c;" d="M94 1038 Q94 1141 146 1232.5 Q198 1324 285 1386 L383 1309 Q332 1279 288.5 1223 Q245 1167 236 1116 Q244 1120 270 1120 Q322 1120 356.5 1083.5 Q391 1047 391 991 Q391 934 350.5 893 Q310 852 252 852 Q186 852 140 902 Q94 952 94 1038 ZM473 1038 Q473 1141 525 1232.5 Q577 1324 664 1386 L762 1309 Q711 1279 667 1223 Q623 1167 614 1116 Q622 1120 649 1120 Q701 1120 735.5 1083.5 Q770 1047 770 991 Q770 934 729.5 893 Q689 852 631 852 Q565 852 519 902 Q473 952 473 1038 Z" /><glyph glyph-name="quotedblright" unicode="&#x201d;" d="M106 1245 Q106 1303 147.5 1344.5 Q189 1386 246 1386 Q312 1386 359 1336 Q406 1286 406 1200 Q406 1097 353 1004.5 Q300 912 213 850 L117 930 Q168 960 211 1015.5 Q254 1071 264 1122 Q246 1116 229 1116 Q176 1116 141 1152 Q106 1188 106 1245 ZM485 1245 Q485 1303 526.5 1344.5 Q568 1386 625 1386 Q691 1386 737.5 1336 Q784 1286 784 1200 Q784 1097 731.5 1004.5 Q679 912 592 850 L496 930 Q547 960 590 1015.5 Q633 1071 643 1122 Q625 1116 608 1116 Q555 1116 520 1152 Q485 1188 485 1245 Z" /><glyph glyph-name="quotedblbase" unicode="&#x201e;" d="M106 123 Q106 181 147.5 222.5 Q189 264 246 264 Q312 264 359 214 Q406 164 406 78 Q406 -25 353 -117.5 Q300 -210 213 -272 L117 -193 Q167 -163 210.5 -107.5 Q254 -52 264 0 Q246 -6 229 -6 Q176 -6 141 30 Q106 66 106 123 ZM485 123 Q485 181 526.5 222.5 Q568 264 625 264 Q691 264 737.5 214 Q784 164 784 78 Q784 -25 731.5 -117.5 Q679 -210 592 -272 L496 -193 Q546 -163 589.5 -107.5 Q633 -52 643 0 Q625 -6 608 -6 Q555 -6 520 30 Q485 66 485 123 Z" /><glyph glyph-name="bullet" unicode="&#x2022;" d="M135 496 Q135 593 203.5 661 Q272 729 369 729 Q466 729 534 661 Q602 593 602 496 Q602 400 534 332 Q466 264 369 264 Q272 264 203.5 332.5 Q135 401 135 496 Z" /><glyph glyph-name="ellipsis" unicode="&#x2026;" d="M106 121 Q106 180 148 222 Q190 264 248 264 Q306 264 348.5 222 Q391 180 391 121 Q391 64 348.5 22 Q306 -20 248 -20 Q190 -20 148 22 Q106 64 106 121 ZM608 121 Q608 180 650 222 Q692 264 750 264 Q808 264 850.5 222 Q893 180 893 121 Q893 64 850.5 22 Q808 -20 750 -20 Q692 -20 650 22 Q608 64 608 121 ZM1110 121 Q1110 180 1151.5 222 Q1193 264 1251 264 Q1310 264 1352.5 221.5 Q1395 179 1395 121 Q1395 64 1352 22 Q1309 -20 1251 -20 Q1193 -20 1151.5 22 Q1110 64 1110 121 Z" /><glyph glyph-name="uni202F" unicode="&#x202f;" d="" /><glyph glyph-name="guilsinglleft" unicode="&#x2039;" d="M61 498 L389 860 L592 860 L264 498 L592 129 L389 129 L61 498 Z" /><glyph glyph-name="guilsinglright" unicode="&#x203a;" d="M61 129 L389 498 L61 860 L264 860 L592 498 L264 129 L61 129 Z" /><glyph glyph-name="uni205F" unicode="&#x205f;" d="" /><glyph glyph-name="Euro" unicode="&#x20ac;" d="M51 471 L51 608 L131 608 Q129 631 129 682 Q129 706 133 760 L51 760 L51 897 L158 897 Q224 1121 411 1255 Q598 1389 846 1389 Q1203 1389 1395 1081 L1190 977 Q1139 1065 1046 1120.5 Q953 1176 846 1176 Q700 1176 586.5 1101 Q473 1026 418 897 L971 897 L971 760 L379 760 Q375 710 375 682 Q375 631 379 608 L971 608 L971 471 L416 471 Q471 340 584.5 264 Q698 188 846 188 Q954 188 1046.5 243 Q1139 298 1190 387 L1395 283 Q1200 -25 846 -25 Q597 -25 409.5 109.5 Q222 244 158 471 L51 471 Z" /><glyph glyph-name="trademark" unicode="&#x2122;" d="M35 1313 L35 1366 L346 1366 L346 1313 L219 1313 L219 915 L162 915 L162 1313 L35 1313 ZM420 915 L420 1366 L508 1366 L639 1038 L770 1366 L858 1366 L858 915 L801 915 L801 1288 L647 915 L631 915 L477 1288 L477 915 L420 915 Z" /><glyph glyph-name="uni25FC" unicode="&#x25fc;" d="M0 0 L0 993 L993 993 L993 0 L0 0 Z" /><glyph glyph-name="fi" unicode="&#xfb01;" d="M27 801 L27 989 L190 989 L190 1044 Q190 1206 277 1296 Q364 1386 504 1386 Q611 1386 676 1348 L629 1188 Q598 1210 543 1210 Q479 1210 442.5 1168 Q406 1126 406 1044 L406 989 L606 989 L606 801 L406 801 L406 0 L190 0 L190 801 L27 801 ZM783 1149 Q743 1188 743 1243 Q743 1298 783 1337 Q823 1376 877 1376 Q932 1376 971 1337 Q1010 1298 1010 1243 Q1010 1188 971 1149 Q932 1110 877 1110 Q823 1110 783 1149 ZM770 0 L770 989 L985 989 L985 0 L770 0 Z" /><glyph glyph-name="fl" unicode="&#xfb02;" d="M27 801 L27 989 L190 989 L190 1044 Q190 1206 277 1296 Q364 1386 504 1386 Q611 1386 676 1348 L629 1188 Q598 1210 543 1210 Q479 1210 442.5 1168 Q406 1126 406 1044 L406 989 L606 989 L606 801 L406 801 L406 0 L190 0 L190 801 L27 801 ZM770 0 L770 1366 L985 1366 L985 0 L770 0 Z" /><glyph glyph-name="uniFB03" unicode="&#xfb03;" d="M27 801 L27 989 L190 989 L190 1044 Q190 1203 275.5 1294.5 Q361 1386 504 1386 Q658 1386 741 1300 L657 1167 Q611 1210 543 1210 Q479 1210 442.5 1168 Q406 1126 406 1044 L406 989 L606 989 L606 801 L406 801 L406 0 L190 0 L190 801 L27 801 ZM657 801 L657 989 L821 989 L821 1044 Q821 1206 908 1296 Q995 1386 1135 1386 Q1242 1386 1307 1348 L1260 1188 Q1229 1210 1174 1210 Q1109 1210 1072.5 1167.5 Q1036 1125 1036 1044 L1036 989 L1237 989 L1237 801 L1036 801 L1036 0 L821 0 L821 801 L657 801 ZM1415.5 1149 Q1376 1188 1376 1243 Q1376 1298 1415.5 1337 Q1455 1376 1509 1376 Q1564 1376 1603 1337 Q1642 1298 1642 1243 Q1642 1188 1603 1149 Q1564 1110 1509 1110 Q1455 1110 1415.5 1149 ZM1403 0 L1403 989 L1618 989 L1618 0 L1403 0 Z" /><glyph glyph-name="uniFB04" unicode="&#xfb04;" d="M27 801 L27 989 L190 989 L190 1044 Q190 1203 275.5 1294.5 Q361 1386 504 1386 Q658 1386 741 1300 L657 1167 Q611 1210 543 1210 Q479 1210 442.5 1168 Q406 1126 406 1044 L406 989 L606 989 L606 801 L406 801 L406 0 L190 0 L190 801 L27 801 ZM657 801 L657 989 L821 989 L821 1044 Q821 1206 908 1296 Q995 1386 1135 1386 Q1242 1386 1307 1348 L1260 1188 Q1229 1210 1174 1210 Q1109 1210 1072.5 1167.5 Q1036 1125 1036 1044 L1036 989 L1237 989 L1237 801 L1036 801 L1036 0 L821 0 L821 801 L657 801 ZM1403 0 L1403 1366 L1618 1366 L1618 0 L1403 0 Z" /></font>
</defs>
</svg>
